<svg width="15" height="16" viewBox="0 0 15 16" fill="none" xmlns="http://www.w3.org/2000/svg">
<path fill-rule="evenodd" clip-rule="evenodd" d="M10.9091 6.63636C10.9091 9.27227 8.77227 11.4091 6.13636 11.4091C3.50046 11.4091 1.36364 9.27227 1.36364 6.63636C1.36364 4.00046 3.50046 1.86364 6.13636 1.86364C8.77227 1.86364 10.9091 4.00046 10.9091 6.63636ZM9.9666 11.4308C8.91683 12.2706 7.58524 12.7727 6.13636 12.7727C2.74734 12.7727 0 10.0254 0 6.63636C0 3.24734 2.74734 0.5 6.13636 0.5C9.52538 0.5 12.2727 3.24734 12.2727 6.63636C12.2727 8.08524 11.7706 9.41683 10.9308 10.4666L14.8003 14.3361C15.0666 14.6023 15.0666 15.034 14.8003 15.3003C14.534 15.5666 14.1023 15.5666 13.8361 15.3003L9.9666 11.4308Z" fill="#A7A7A7"/>
</svg>
