<svg width="52" height="36" viewBox="0 0 52 36" fill="none" xmlns="http://www.w3.org/2000/svg">
<path d="M13.0607 0.939339C12.4749 0.353554 11.5251 0.353554 10.9393 0.939339L1.3934 10.4853C0.807611 11.0711 0.807611 12.0208 1.3934 12.6066C1.97919 13.1924 2.92893 13.1924 3.51472 12.6066L12 4.12132L20.4853 12.6066C21.0711 13.1924 22.0208 13.1924 22.6066 12.6066C23.1924 12.0208 23.1924 11.0711 22.6066 10.4853L13.0607 0.939339ZM13.5 34L13.5 2H10.5L10.5 34H13.5Z" fill="black"/>
<path d="M38.9393 35.0607C39.5251 35.6464 40.4749 35.6464 41.0607 35.0607L50.6066 25.5147C51.1924 24.9289 51.1924 23.9792 50.6066 23.3934C50.0208 22.8076 49.0711 22.8076 48.4853 23.3934L40 31.8787L31.5147 23.3934C30.9289 22.8076 29.9792 22.8076 29.3934 23.3934C28.8076 23.9792 28.8076 24.9289 29.3934 25.5147L38.9393 35.0607ZM38.5 2L38.5 34L41.5 34L41.5 2L38.5 2Z" fill="black"/>
</svg>
