<svg width="14" height="14" viewBox="0 0 14 14" fill="none" xmlns="http://www.w3.org/2000/svg">
<path fill-rule="evenodd" clip-rule="evenodd" d="M3.8001 0.600014C3.35827 0.600014 3.0001 0.958186 3.0001 1.40001V2.20001H2.2001C1.31644 2.20001 0.600098 2.91636 0.600098 3.80001V11.8C0.600098 12.6837 1.31644 13.4 2.2001 13.4H11.8001C12.6838 13.4 13.4001 12.6837 13.4001 11.8V3.80001C13.4001 2.91636 12.6838 2.20001 11.8001 2.20001H11.0001V1.40001C11.0001 0.958186 10.6419 0.600014 10.2001 0.600014C9.75827 0.600014 9.4001 0.958186 9.4001 1.40001V2.20001H4.6001V1.40001C4.6001 0.958186 4.24193 0.600014 3.8001 0.600014ZM3.8001 4.60001C3.35827 4.60001 3.0001 4.95819 3.0001 5.40001C3.0001 5.84184 3.35827 6.20001 3.8001 6.20001H10.2001C10.6419 6.20001 11.0001 5.84184 11.0001 5.40001C11.0001 4.95819 10.6419 4.60001 10.2001 4.60001H3.8001Z" fill="#6D6D6D"/>
</svg>
