<svg width="16" height="16" viewBox="0 0 16 16" fill="none" xmlns="http://www.w3.org/2000/svg">
<path fill-rule="evenodd" clip-rule="evenodd" d="M2.39941 13.6C2.39941 13.1582 2.75759 12.8 3.19941 12.8H12.7994C13.2412 12.8 13.5994 13.1582 13.5994 13.6C13.5994 14.0418 13.2412 14.4 12.7994 14.4H3.19941C2.75759 14.4 2.39941 14.0418 2.39941 13.6ZM5.03373 7.43431C5.34615 7.12189 5.85268 7.12189 6.1651 7.43431L7.19941 8.46863L7.19941 2.4C7.19941 1.95817 7.55759 1.6 7.99941 1.6C8.44124 1.6 8.79941 1.95817 8.79941 2.4V8.46863L9.83373 7.43431C10.1461 7.12189 10.6527 7.12189 10.9651 7.43431C11.2775 7.74673 11.2775 8.25326 10.9651 8.56568L8.5651 10.9657C8.41507 11.1157 8.21159 11.2 7.99941 11.2C7.78724 11.2 7.58376 11.1157 7.43373 10.9657L5.03373 8.56568C4.72131 8.25326 4.72131 7.74673 5.03373 7.43431Z" fill="white"/>
</svg>
