<svg width="30" height="30" viewBox="0 0 30 30" fill="none" xmlns="http://www.w3.org/2000/svg">
<path d="M15.0146 0.938128C15.0146 0.403862 14.581 -0.0324919 14.0479 0.0019034C11.4183 0.171546 8.87336 1.03091 6.67295 2.50118C4.20381 4.15102 2.27935 6.49599 1.14293 9.23956C0.0065056 11.9831 -0.290834 15.0021 0.288508 17.9146C0.867851 20.8272 2.29785 23.5026 4.39769 25.6024C6.49752 27.7022 9.17287 29.1323 12.0854 29.7116C14.998 30.2909 18.0169 29.9936 20.7605 28.8572C23.504 27.7208 25.849 25.7963 27.4988 23.3271C28.9691 21.1267 29.8285 18.5818 29.9981 15.9522C30.0325 15.419 29.5961 14.9854 29.0619 14.9854C28.5276 14.9854 28.0982 15.4191 28.0588 15.9519C27.8923 18.1985 27.1478 20.3701 25.8902 22.2522C24.4529 24.4032 22.4101 26.0797 20.0201 27.0697C17.63 28.0597 15.0001 28.3187 12.4629 27.814C9.92562 27.3093 7.59501 26.0636 5.76575 24.2343C3.9365 22.4051 2.69076 20.0745 2.18607 17.5372C1.68138 14.9999 1.94041 12.37 2.93039 9.97996C3.92038 7.58991 5.59686 5.54711 7.74783 4.10987C9.63001 2.85223 11.8015 2.1077 14.0481 1.94125C14.5809 1.90178 15.0146 1.47239 15.0146 0.938128Z" fill="#A7A7A7"/>
</svg>
