<svg width="23" height="22" viewBox="0 0 23 22" fill="none" xmlns="http://www.w3.org/2000/svg">
<path fill-rule="evenodd" clip-rule="evenodd" d="M6.56001 0.965137C7.1458 1.55092 7.1458 2.50067 6.56001 3.08646L5.454 4.19246H13.7494C18.6279 4.19246 22.5827 8.14728 22.5827 13.0258C22.5827 17.9043 18.6279 21.8591 13.7494 21.8591H6.41602C5.58759 21.8591 4.91602 21.1876 4.91602 20.3591C4.91602 19.5307 5.58759 18.8591 6.41602 18.8591H13.7494C16.971 18.8591 19.5827 16.2475 19.5827 13.0258C19.5827 9.80414 16.971 7.19246 13.7494 7.19246H5.454L6.56001 8.29847C7.1458 8.88426 7.1458 9.834 6.56001 10.4198C5.97422 11.0056 5.02448 11.0056 4.43869 10.4198L0.772022 6.75312C0.186236 6.16734 0.186236 5.21759 0.772022 4.6318L4.43869 0.965137C5.02448 0.379351 5.97422 0.379351 6.56001 0.965137Z" fill="#3622F5"/>
</svg>
