<svg width="370" height="325" viewBox="0 0 370 325" fill="none" xmlns="http://www.w3.org/2000/svg">
<path d="M368.985 70.0923C323.97 47.585 258.203 14.7017 236.246 3.72297C231.456 1.32796 225.947 0.974575 220.879 2.70548L1 77.8025M368.985 70.0923C280.023 100.476 141.185 147.895 141.185 147.895M368.985 70.0923C368.985 127.93 368.985 213.174 368.985 238.182C368.985 242.46 366.264 246.252 362.217 247.635L141.185 323.126M141.185 147.895V323.126M141.185 147.895L71.0923 112.849L1 77.8025M1 77.8025V246.853C1 250.641 3.14004 254.103 6.52788 255.797L141.185 323.126M299.044 35.1218C210.082 65.5055 70.3951 112.5 70.3951 112.5" stroke="#3622F5" stroke-width="2" stroke-linecap="round"/>
</svg>
