<svg width="21" height="21" viewBox="0 0 21 21" fill="#3622F5" xmlns="http://www.w3.org/2000/svg">
<path d="M0.950807 19.2755C0.444783 18.7695 0.444784 17.9491 0.950807 17.443L17.4431 0.950687C17.9491 0.444661 18.7695 0.444662 19.2755 0.950688L20.1918 1.86693C20.6978 2.37296 20.6978 3.19339 20.1918 3.69941L3.69952 20.1918C3.19349 20.6978 2.37307 20.6978 1.86704 20.1918L0.950807 19.2755Z" fill="#3622F5"/>
<path d="M1.86704 0.950687C2.37307 0.44466 3.19349 0.44466 3.69952 0.950687L20.1918 17.443C20.6978 17.9491 20.6978 18.7695 20.1918 19.2755L19.2755 20.1918C18.7695 20.6978 17.9491 20.6978 17.4431 20.1918L0.950806 3.69941C0.444783 3.19339 0.444784 2.37296 0.950807 1.86693L1.86704 0.950687Z" fill="#3622F5"/>
</svg>
