<svg width="16" height="16" viewBox="0 0 16 16" fill="none" xmlns="http://www.w3.org/2000/svg">
<path d="M1.45455 1.45456L4.06484 4.06486M14.5455 14.5455L11.9354 11.9354M9.36354 12.9634C8.92197 13.0471 8.46627 13.0909 8.00034 13.0909C4.74386 13.0909 1.98728 10.9506 1.06055 7.99999C1.31284 7.19674 1.70073 6.45355 2.19741 5.79724M6.45722 6.45724C6.85205 6.0624 7.39751 5.8182 8 5.8182C9.20499 5.8182 10.1818 6.79503 10.1818 8.00001C10.1818 8.60251 9.93761 9.14796 9.54278 9.54279M6.45722 6.45724L9.54278 9.54279M6.45722 6.45724L4.06484 4.06486M9.54278 9.54279L4.06484 4.06486M9.54278 9.54279L11.9354 11.9354M4.06484 4.06486C5.19926 3.3335 6.55023 2.9091 8.00032 2.9091C11.2568 2.9091 14.0134 5.04941 14.9401 8.00004C14.426 9.6369 13.3487 11.0244 11.9354 11.9354" stroke="#6D6D6D" stroke-width="1.45455" stroke-linecap="round" stroke-linejoin="round"/>
</svg>
