<svg width="7" height="16" viewBox="0 0 7 16" fill="none" xmlns="http://www.w3.org/2000/svg">
<path fill-rule="evenodd" clip-rule="evenodd" d="M1.23077 3.07692C1.23077 2.05732 2.05732 1.23077 3.07692 1.23077C4.09653 1.23077 4.92308 2.05732 4.92308 3.07692C4.92308 4.09653 4.09653 4.92308 3.07692 4.92308C2.05732 4.92308 1.23077 4.09653 1.23077 3.07692ZM3.69231 6.0923C5.09676 5.80721 6.15385 4.56551 6.15385 3.07692C6.15385 1.37759 4.77626 0 3.07692 0C1.37759 0 -5.96046e-08 1.37759 0 3.07692C5.22125e-08 4.56551 1.05708 5.80721 2.46154 6.0923V15.3846C2.46154 15.7245 2.73706 16 3.07692 16C3.41679 16 3.69231 15.7245 3.69231 15.3846L3.69231 6.0923Z" fill="#A7A7A7"/>
</svg>
