<svg width="20" height="51" viewBox="0 0 20 51" fill="none" xmlns="http://www.w3.org/2000/svg">
<path fill-rule="evenodd" clip-rule="evenodd" d="M4.47164 9.86532C4.47164 6.67907 7.05462 4.09609 10.2409 4.09609C13.4271 4.09609 16.0101 6.67907 16.0101 9.86532C16.0101 13.0516 13.4271 15.6346 10.2409 15.6346C7.05462 15.6346 4.47164 13.0516 4.47164 9.86532ZM10.2409 0.249939C4.93044 0.249939 0.625488 4.55489 0.625488 9.86532C0.625488 14.517 3.9287 18.3973 8.31744 19.2883L8.31744 48.3269C8.31744 49.389 9.17844 50.25 10.2405 50.25C11.3026 50.25 12.1636 49.389 12.1636 48.3269L12.1636 19.2884C16.5527 18.3977 19.8563 14.5173 19.8563 9.86532C19.8563 4.55489 15.5513 0.249939 10.2409 0.249939Z" fill="#3622F5"/>
</svg>
