<svg width="214" height="68" viewBox="0 0 214 68" fill="none" xmlns="http://www.w3.org/2000/svg">
<g clip-path="url(#clip0_974_1586)">
<rect x="19.3696" width="6.13043" height="47" fill="#3622F5"/>
<rect x="1" y="47" width="6.13043" height="22.4783" transform="rotate(-90 1 47)" fill="#3622F5"/>
<rect x="27.5435" y="6.13043" width="6.13043" height="23.5" transform="rotate(-90 27.5435 6.13043)" fill="#E60029"/>
<rect x="27.5435" y="26.5652" width="6.13043" height="23.5" transform="rotate(-90 27.5435 26.5652)" fill="#E60029"/>
<rect x="27.5435" y="47" width="6.13043" height="23.5" transform="rotate(-90 27.5435 47)" fill="#E60029"/>
<rect x="27.5435" width="6.13043" height="47" fill="#E60029"/>
</g>
<path d="M98.3555 24V16.932H95.8595L95.8115 18.372C95.7715 19.5 95.6795 20.432 95.5355 21.168C95.3915 21.904 95.1835 22.484 94.9115 22.908C94.6395 23.324 94.2955 23.62 93.8795 23.796C93.4715 23.964 92.9795 24.048 92.4035 24.048V22.62C92.6995 22.62 92.9555 22.556 93.1715 22.428C93.3875 22.3 93.5675 22.068 93.7115 21.732C93.8635 21.396 93.9835 20.92 94.0715 20.304C94.1595 19.688 94.2195 18.892 94.2515 17.916L94.3355 15.48H99.9995V24H98.3555ZM108.607 24.06C107.903 24.06 107.275 23.912 106.723 23.616C106.179 23.32 105.735 22.9 105.391 22.356C105.047 21.812 104.831 21.168 104.743 20.424H103.447V24H101.791V15.48H103.447V18.984H104.755C104.851 18.232 105.075 17.592 105.427 17.064C105.787 16.536 106.243 16.132 106.795 15.852C107.347 15.564 107.963 15.42 108.643 15.42C109.435 15.42 110.123 15.604 110.707 15.972C111.299 16.332 111.759 16.84 112.087 17.496C112.423 18.144 112.591 18.9 112.591 19.764C112.591 20.692 112.419 21.476 112.075 22.116C111.731 22.748 111.259 23.232 110.659 23.568C110.067 23.896 109.383 24.06 108.607 24.06ZM108.631 22.596C109.119 22.596 109.531 22.476 109.867 22.236C110.211 21.988 110.471 21.648 110.647 21.216C110.823 20.784 110.911 20.292 110.911 19.74C110.911 19.148 110.819 18.644 110.635 18.228C110.451 17.804 110.187 17.476 109.843 17.244C109.499 17.012 109.091 16.896 108.619 16.896C108.139 16.896 107.731 17.016 107.395 17.256C107.059 17.496 106.803 17.832 106.627 18.264C106.451 18.688 106.363 19.18 106.363 19.74C106.363 20.324 106.451 20.832 106.627 21.264C106.811 21.688 107.071 22.016 107.407 22.248C107.751 22.48 108.159 22.596 108.631 22.596ZM113.885 24V15.48H120.029V16.908H115.529V18.96H117.845C118.797 18.96 119.513 19.184 119.993 19.632C120.473 20.08 120.713 20.68 120.713 21.432C120.713 21.936 120.609 22.38 120.401 22.764C120.193 23.148 119.885 23.452 119.477 23.676C119.069 23.892 118.553 24 117.929 24H113.885ZM115.529 22.572H117.701C118.021 22.572 118.277 22.516 118.469 22.404C118.661 22.284 118.801 22.136 118.889 21.96C118.977 21.776 119.021 21.584 119.021 21.384C119.021 21.184 118.981 21 118.901 20.832C118.829 20.656 118.697 20.516 118.505 20.412C118.313 20.3 118.037 20.244 117.677 20.244H115.529V22.572ZM127.301 24V16.932H124.805L124.757 18.372C124.717 19.5 124.625 20.432 124.481 21.168C124.337 21.904 124.129 22.484 123.857 22.908C123.585 23.324 123.241 23.62 122.825 23.796C122.417 23.964 121.925 24.048 121.349 24.048V22.62C121.645 22.62 121.901 22.556 122.117 22.428C122.333 22.3 122.513 22.068 122.657 21.732C122.809 21.396 122.929 20.92 123.017 20.304C123.105 19.688 123.165 18.892 123.197 17.916L123.281 15.48H128.945V24H127.301ZM130.796 24V15.48H132.44V21.672L136.568 15.48H138.104V24H136.46V17.88L132.38 24H130.796ZM147.099 15.48V24H145.455V20.364H141.591V24H139.935V15.48H141.591V18.924H145.455V15.48H147.099ZM152.513 24.06C151.889 24.06 151.321 23.94 150.809 23.7C150.305 23.46 149.869 23.136 149.501 22.728C149.141 22.312 148.861 21.848 148.661 21.336C148.461 20.816 148.361 20.284 148.361 19.74C148.361 19.172 148.465 18.632 148.673 18.12C148.889 17.6 149.181 17.14 149.549 16.74C149.925 16.332 150.365 16.012 150.869 15.78C151.381 15.54 151.941 15.42 152.549 15.42C153.165 15.42 153.725 15.544 154.229 15.792C154.741 16.04 155.177 16.372 155.537 16.788C155.897 17.204 156.177 17.668 156.377 18.18C156.577 18.692 156.677 19.22 156.677 19.764C156.677 20.324 156.573 20.864 156.365 21.384C156.157 21.896 155.865 22.356 155.489 22.764C155.121 23.164 154.681 23.48 154.169 23.712C153.665 23.944 153.113 24.06 152.513 24.06ZM150.041 19.74C150.041 20.108 150.097 20.464 150.209 20.808C150.321 21.152 150.481 21.46 150.689 21.732C150.905 21.996 151.165 22.208 151.469 22.368C151.781 22.52 152.133 22.596 152.525 22.596C152.925 22.596 153.281 22.516 153.593 22.356C153.905 22.188 154.165 21.968 154.373 21.696C154.581 21.416 154.737 21.108 154.841 20.772C154.953 20.428 155.009 20.084 155.009 19.74C155.009 19.372 154.949 19.02 154.829 18.684C154.717 18.34 154.553 18.036 154.337 17.772C154.129 17.5 153.869 17.288 153.557 17.136C153.253 16.976 152.909 16.896 152.525 16.896C152.117 16.896 151.757 16.98 151.445 17.148C151.141 17.308 150.885 17.524 150.677 17.796C150.469 18.068 150.309 18.372 150.197 18.708C150.093 19.044 150.041 19.388 150.041 19.74Z" fill="#E60029"/>
<path d="M69.8643 47.1418C68.8247 47.1418 67.8638 46.9842 66.9817 46.6692C66.1154 46.3542 65.3435 45.9052 64.6662 45.3224C64.0046 44.7238 63.4533 44.0308 63.0122 43.2432L65.2333 41.9909C65.5483 42.5895 65.9421 43.0935 66.4147 43.5031C66.8872 43.9126 67.4149 44.2277 67.9977 44.4482C68.5963 44.653 69.2185 44.7553 69.8643 44.7553C70.6834 44.7553 71.4316 44.5978 72.109 44.2828C72.7863 43.952 73.3691 43.5031 73.8574 42.936C74.3458 42.3689 74.708 41.7231 74.9443 40.9985C75.1964 40.2582 75.3145 39.4863 75.2987 38.683L76.4329 39.4627H68.3758V37.4071H76.362L75.2987 38.1159C75.283 37.4071 75.1491 36.7219 74.8971 36.0603C74.645 35.3829 74.2906 34.7844 73.8338 34.2646C73.377 33.729 72.8178 33.3037 72.1562 32.9886C71.4947 32.6736 70.7307 32.5161 69.8643 32.5161C69.25 32.5161 68.6514 32.6185 68.0686 32.8233C67.5015 33.0123 66.9896 33.3116 66.5328 33.7211C66.076 34.1149 65.6979 34.6111 65.3987 35.2097L63.2485 33.792C63.8943 32.7209 64.7528 31.8466 65.824 31.1693C66.8951 30.4762 68.2419 30.1297 69.8643 30.1297C71.1717 30.1297 72.3295 30.3738 73.3376 30.8621C74.3615 31.3347 75.22 31.9726 75.9131 32.776C76.6219 33.5636 77.1575 34.4615 77.5198 35.4696C77.8821 36.4777 78.0632 37.5173 78.0632 38.5885C78.0632 39.7069 77.8663 40.778 77.4725 41.8019C77.0945 42.8257 76.5431 43.7393 75.8186 44.5427C75.094 45.346 74.2276 45.984 73.2195 46.4566C72.2271 46.9134 71.1087 47.1418 69.8643 47.1418ZM80.8245 47V30.2242H83.4709V37.2417H85.432L90.701 30.2242H93.7254L87.5585 38.3522L94.1743 47H90.9373L85.432 39.6753H83.4709V47H80.8245ZM94.5743 38.494C94.5743 37.4701 94.7555 36.4698 95.1178 35.4932C95.4801 34.5008 96.0077 33.603 96.7008 32.7996C97.4097 31.9805 98.2681 31.3347 99.2763 30.8621C100.284 30.3738 101.426 30.1297 102.702 30.1297C104.215 30.1297 105.522 30.4762 106.625 31.1693C107.727 31.8466 108.546 32.7209 109.082 33.792L107.003 35.186C106.688 34.5087 106.286 33.9731 105.798 33.5793C105.325 33.1855 104.805 32.9099 104.238 32.7524C103.687 32.5949 103.143 32.5161 102.608 32.5161C101.726 32.5161 100.954 32.6972 100.292 33.0595C99.6307 33.4061 99.0715 33.8708 98.6147 34.4536C98.1736 35.0364 97.835 35.6901 97.5987 36.4147C97.3782 37.1393 97.2679 37.8639 97.2679 38.5885C97.2679 39.3918 97.4018 40.1715 97.6696 40.9276C97.9374 41.668 98.3075 42.3296 98.7801 42.9124C99.2684 43.4794 99.8433 43.9284 100.505 44.2592C101.167 44.59 101.891 44.7553 102.679 44.7553C103.214 44.7553 103.773 44.6608 104.356 44.4718C104.939 44.2828 105.475 43.9914 105.963 43.5976C106.467 43.188 106.861 42.6525 107.144 41.9909L109.342 43.2432C108.995 44.078 108.452 44.7869 107.711 45.3697C106.987 45.9525 106.168 46.3936 105.254 46.6928C104.356 46.9921 103.466 47.1418 102.584 47.1418C101.403 47.1418 100.324 46.8976 99.3472 46.4093C98.3705 45.9052 97.5278 45.2437 96.819 44.4246C96.1101 43.5897 95.5588 42.6603 95.165 41.6365C94.7712 40.5968 94.5743 39.5493 94.5743 38.494ZM111.813 47V30.2242H125.068V47H122.398V32.5633H114.459V47H111.813ZM128.864 47V30.2242H135.905C136.662 30.2242 137.355 30.3817 137.985 30.6967C138.615 31.0118 139.166 31.4292 139.639 31.949C140.111 32.4688 140.473 33.0517 140.726 33.6975C140.978 34.3433 141.104 35.0049 141.104 35.6822C141.104 36.6116 140.891 37.5016 140.466 38.3522C140.056 39.187 139.465 39.8644 138.694 40.3842C137.937 40.904 137.055 41.1639 136.047 41.1639H131.511V47H128.864ZM131.511 38.8247H135.882C136.386 38.8247 136.827 38.6909 137.205 38.4231C137.583 38.1395 137.874 37.7615 138.079 37.2889C138.3 36.8164 138.41 36.2808 138.41 35.6822C138.41 35.0679 138.284 34.5245 138.032 34.0519C137.78 33.5793 137.449 33.2171 137.04 32.965C136.646 32.6972 136.213 32.5633 135.74 32.5633H131.511V38.8247ZM155.092 44.6608V47H143.586V30.2242H154.88V32.5633H146.232V37.3362H153.722V39.5336H146.232V44.6608H155.092ZM156.459 38.494C156.459 37.4701 156.64 36.4698 157.003 35.4932C157.365 34.5008 157.893 33.603 158.586 32.7996C159.294 31.9805 160.153 31.3347 161.161 30.8621C162.169 30.3738 163.311 30.1297 164.587 30.1297C166.099 30.1297 167.407 30.4762 168.509 31.1693C169.612 31.8466 170.431 32.7209 170.967 33.792L168.887 35.186C168.572 34.5087 168.171 33.9731 167.682 33.5793C167.21 33.1855 166.69 32.9099 166.123 32.7524C165.572 32.5949 165.028 32.5161 164.493 32.5161C163.611 32.5161 162.839 32.6972 162.177 33.0595C161.515 33.4061 160.956 33.8708 160.499 34.4536C160.058 35.0364 159.72 35.6901 159.483 36.4147C159.263 37.1393 159.153 37.8639 159.153 38.5885C159.153 39.3918 159.287 40.1715 159.554 40.9276C159.822 41.668 160.192 42.3296 160.665 42.9124C161.153 43.4794 161.728 43.9284 162.39 44.2592C163.051 44.59 163.776 44.7553 164.563 44.7553C165.099 44.7553 165.658 44.6608 166.241 44.4718C166.824 44.2828 167.359 43.9914 167.848 43.5976C168.352 43.188 168.746 42.6525 169.029 41.9909L171.227 43.2432C170.88 44.078 170.337 44.7869 169.596 45.3697C168.872 45.9525 168.053 46.3936 167.139 46.6928C166.241 46.9921 165.351 47.1418 164.469 47.1418C163.288 47.1418 162.209 46.8976 161.232 46.4093C160.255 45.9052 159.413 45.2437 158.704 44.4246C157.995 43.5897 157.444 42.6603 157.05 41.6365C156.656 40.5968 156.459 39.5493 156.459 38.494ZM172.403 38.494C172.403 37.4701 172.584 36.4698 172.947 35.4932C173.309 34.5008 173.837 33.603 174.53 32.7996C175.239 31.9805 176.097 31.3347 177.105 30.8621C178.113 30.3738 179.255 30.1297 180.531 30.1297C182.044 30.1297 183.351 30.4762 184.454 31.1693C185.556 31.8466 186.375 32.7209 186.911 33.792L184.832 35.186C184.517 34.5087 184.115 33.9731 183.627 33.5793C183.154 33.1855 182.634 32.9099 182.067 32.7524C181.516 32.5949 180.972 32.5161 180.437 32.5161C179.555 32.5161 178.783 32.6972 178.121 33.0595C177.46 33.4061 176.901 33.8708 176.444 34.4536C176.003 35.0364 175.664 35.6901 175.428 36.4147C175.207 37.1393 175.097 37.8639 175.097 38.5885C175.097 39.3918 175.231 40.1715 175.499 40.9276C175.766 41.668 176.137 42.3296 176.609 42.9124C177.097 43.4794 177.672 43.9284 178.334 44.2592C178.996 44.59 179.72 44.7553 180.508 44.7553C181.043 44.7553 181.602 44.6608 182.185 44.4718C182.768 44.2828 183.304 43.9914 183.792 43.5976C184.296 43.188 184.69 42.6525 184.973 41.9909L187.171 43.2432C186.824 44.078 186.281 44.7869 185.54 45.3697C184.816 45.9525 183.997 46.3936 183.083 46.6928C182.185 46.9921 181.295 47.1418 180.413 47.1418C179.232 47.1418 178.153 46.8976 177.176 46.4093C176.2 45.9052 175.357 45.2437 174.648 44.4246C173.939 43.5897 173.388 42.6603 172.994 41.6365C172.6 40.5968 172.403 39.5493 172.403 38.494Z" fill="black"/>
<path d="M0.784 65.072L1.132 63.368C1.396 63.368 1.628 63.304 1.828 63.176C2.036 63.048 2.228 62.828 2.404 62.516C2.588 62.204 2.768 61.772 2.944 61.22C3.128 60.66 3.328 59.952 3.544 59.096L4.192 56.48H10.108L8.308 65H6.34L7.78 58.208H5.656L5.296 59.672C5.024 60.744 4.752 61.632 4.48 62.336C4.216 63.04 3.916 63.592 3.58 63.992C3.252 64.384 2.86 64.664 2.404 64.832C1.956 64.992 1.416 65.072 0.784 65.072ZM9.89453 65L11.2265 58.7H13.1465L12.6545 61.016H14.1905L13.8185 62.648H12.3065L11.8145 65H9.89453ZM16.2785 65.12C15.5665 65.12 14.9785 64.968 14.5145 64.664C14.0585 64.36 13.7305 63.96 13.5305 63.464C13.3385 62.968 13.2825 62.432 13.3625 61.856C13.4265 61.424 13.5585 61.012 13.7585 60.62C13.9665 60.22 14.2345 59.868 14.5625 59.564C14.8985 59.26 15.2865 59.02 15.7265 58.844C16.1745 58.668 16.6625 58.58 17.1905 58.58C17.9025 58.58 18.4865 58.732 18.9425 59.036C19.4065 59.34 19.7345 59.74 19.9265 60.236C20.1265 60.732 20.1865 61.272 20.1065 61.856C20.0505 62.288 19.9185 62.7 19.7105 63.092C19.5105 63.484 19.2425 63.832 18.9065 64.136C18.5785 64.44 18.1945 64.68 17.7545 64.856C17.3145 65.032 16.8225 65.12 16.2785 65.12ZM16.5065 63.596C16.6985 63.596 16.8865 63.556 17.0705 63.476C17.2625 63.388 17.4345 63.268 17.5865 63.116C17.7385 62.956 17.8665 62.768 17.9705 62.552C18.0745 62.336 18.1425 62.104 18.1745 61.856C18.2225 61.512 18.1985 61.208 18.1025 60.944C18.0145 60.68 17.8705 60.476 17.6705 60.332C17.4705 60.188 17.2385 60.116 16.9745 60.116C16.7745 60.116 16.5825 60.16 16.3985 60.248C16.2145 60.328 16.0425 60.444 15.8825 60.596C15.7305 60.748 15.6025 60.932 15.4985 61.148C15.4025 61.356 15.3345 61.592 15.2945 61.856C15.2545 62.2 15.2785 62.504 15.3665 62.768C15.4625 63.024 15.6105 63.228 15.8105 63.38C16.0105 63.524 16.2425 63.596 16.5065 63.596ZM24.0403 65.12C22.9203 65.12 22.1123 64.788 21.6163 64.124C21.1203 63.452 20.9803 62.5 21.1963 61.268C21.3883 60.22 21.6603 59.368 22.0123 58.712C22.3723 58.056 22.8203 57.556 23.3563 57.212C23.9003 56.868 24.5403 56.636 25.2763 56.516C25.5323 56.46 25.7763 56.416 26.0083 56.384C26.2483 56.352 26.4603 56.304 26.6443 56.24C26.8283 56.168 26.9603 56.052 27.0403 55.892L28.3003 56.408C28.2123 56.8 28.0723 57.1 27.8803 57.308C27.6883 57.516 27.4083 57.672 27.0403 57.776C26.6803 57.88 26.2003 57.972 25.6003 58.052C25.0883 58.124 24.6723 58.244 24.3523 58.412C24.0323 58.572 23.7723 58.796 23.5723 59.084C23.3803 59.372 23.2083 59.74 23.0563 60.188C23.3203 59.884 23.6483 59.644 24.0403 59.468C24.4323 59.284 24.8763 59.192 25.3723 59.192C25.9163 59.192 26.3763 59.312 26.7523 59.552C27.1283 59.792 27.4043 60.124 27.5803 60.548C27.7563 60.964 27.8043 61.448 27.7243 62C27.6443 62.592 27.4443 63.124 27.1243 63.596C26.8123 64.068 26.3963 64.44 25.8763 64.712C25.3563 64.984 24.7443 65.12 24.0403 65.12ZM24.1843 63.596C24.5923 63.596 24.9363 63.464 25.2163 63.2C25.5043 62.928 25.6803 62.576 25.7443 62.144C25.8003 61.728 25.7243 61.388 25.5163 61.124C25.3163 60.852 25.0123 60.716 24.6043 60.716C24.3483 60.716 24.1083 60.78 23.8843 60.908C23.6603 61.028 23.4763 61.196 23.3323 61.412C23.1883 61.62 23.0963 61.864 23.0563 62.144C23.0083 62.424 23.0243 62.676 23.1043 62.9C23.1843 63.116 23.3163 63.288 23.5003 63.416C23.6843 63.536 23.9123 63.596 24.1843 63.596ZM27.8889 65C28.2089 63.952 28.6849 62.9 29.3169 61.844C29.9569 60.78 30.7249 59.732 31.6209 58.7H33.6009L34.3929 65H32.4009L32.1369 60.332C31.8489 60.772 31.5889 61.18 31.3569 61.556C31.1329 61.932 30.9289 62.304 30.7449 62.672C30.5689 63.032 30.4009 63.404 30.2409 63.788C30.0809 64.164 29.9209 64.568 29.7609 65H27.8889ZM36.8868 65.12C35.9028 65.12 35.4108 64.616 35.4108 63.608C35.4108 63.472 35.4188 63.336 35.4348 63.2C35.4588 63.056 35.4868 62.9 35.5188 62.732L36.3828 58.7H38.2908L37.5228 62.312C37.4828 62.488 37.4628 62.644 37.4628 62.78C37.4628 63.26 37.6628 63.5 38.0628 63.5C38.2148 63.5 38.3668 63.472 38.5188 63.416C38.6708 63.352 38.8308 63.252 38.9988 63.116C39.1668 62.98 39.3308 62.804 39.4908 62.588L40.3188 58.7H42.2388L41.3628 62.84C41.3548 62.888 41.3468 62.932 41.3388 62.972C41.3308 63.012 41.3268 63.052 41.3268 63.092C41.3268 63.276 41.4308 63.372 41.6388 63.38L41.2908 65C41.1148 65.032 40.9588 65.056 40.8228 65.072C40.6868 65.088 40.5708 65.096 40.4748 65.096C40.1628 65.096 39.9108 65.036 39.7188 64.916C39.5348 64.796 39.4428 64.6 39.4428 64.328C39.4428 64.296 39.4468 64.264 39.4548 64.232C39.4628 64.192 39.4708 64.144 39.4788 64.088C39.4868 64.032 39.4948 63.972 39.5028 63.908C39.1428 64.324 38.7388 64.632 38.2908 64.832C37.8508 65.024 37.3828 65.12 36.8868 65.12ZM42.4961 65L43.8281 58.7H45.7481L45.2441 61.052H47.3921L47.8961 58.7H49.8161L48.4721 65H46.5521L47.0801 62.504H44.9441L44.4161 65H42.4961ZM53.1206 65.12C52.4086 65.12 51.8206 64.968 51.3566 64.664C50.9006 64.36 50.5766 63.96 50.3846 63.464C50.1926 62.968 50.1366 62.432 50.2166 61.856C50.2806 61.416 50.4126 61 50.6126 60.608C50.8126 60.216 51.0766 59.868 51.4046 59.564C51.7406 59.26 52.1286 59.02 52.5686 58.844C53.0166 58.668 53.5046 58.58 54.0326 58.58C54.7526 58.58 55.3406 58.732 55.7966 59.036C56.2606 59.34 56.5886 59.74 56.7806 60.236C56.9726 60.732 57.0286 61.272 56.9486 61.856C56.8926 62.288 56.7606 62.7 56.5526 63.092C56.3526 63.484 56.0846 63.832 55.7486 64.136C55.4206 64.44 55.0366 64.68 54.5966 64.856C54.1566 65.032 53.6646 65.12 53.1206 65.12ZM53.3486 63.596C53.5406 63.596 53.7286 63.556 53.9126 63.476C54.1046 63.388 54.2766 63.268 54.4286 63.116C54.5806 62.956 54.7086 62.768 54.8126 62.552C54.9166 62.336 54.9846 62.104 55.0166 61.856C55.0646 61.512 55.0406 61.208 54.9446 60.944C54.8566 60.68 54.7126 60.476 54.5126 60.332C54.3126 60.188 54.0806 60.116 53.8166 60.116C53.6166 60.116 53.4246 60.16 53.2406 60.248C53.0566 60.328 52.8886 60.444 52.7366 60.596C52.5846 60.748 52.4566 60.932 52.3526 61.148C52.2486 61.356 52.1806 61.592 52.1486 61.856C52.1006 62.2 52.1206 62.504 52.2086 62.768C52.3046 63.024 52.4526 63.228 52.6526 63.38C52.8526 63.524 53.0846 63.596 53.3486 63.596ZM63.4817 65.072C62.9057 65.072 62.4057 64.992 61.9817 64.832C61.5577 64.664 61.2017 64.432 60.9137 64.136C60.6257 63.832 60.3937 63.488 60.2177 63.104L61.9817 62.144C62.0697 62.384 62.1937 62.592 62.3537 62.768C62.5137 62.944 62.7097 63.08 62.9417 63.176C63.1737 63.272 63.4417 63.32 63.7457 63.32C64.1217 63.32 64.4577 63.252 64.7537 63.116C65.0577 62.98 65.3177 62.792 65.5337 62.552C65.7577 62.312 65.9377 62.036 66.0737 61.724C66.2177 61.412 66.3137 61.08 66.3617 60.728C66.4337 60.232 66.4137 59.792 66.3017 59.408C66.1897 59.024 65.9817 58.724 65.6777 58.508C65.3817 58.292 64.9897 58.184 64.5017 58.184C64.0537 58.184 63.6497 58.292 63.2897 58.508C62.9377 58.716 62.6497 59.004 62.4257 59.372L61.0217 58.28C61.4617 57.736 61.9817 57.292 62.5817 56.948C63.1817 56.604 63.9177 56.432 64.7897 56.432C65.4617 56.432 66.0417 56.552 66.5297 56.792C67.0177 57.032 67.4097 57.356 67.7057 57.764C68.0017 58.164 68.2057 58.624 68.3177 59.144C68.4297 59.656 68.4417 60.196 68.3537 60.764C68.2737 61.34 68.0977 61.888 67.8257 62.408C67.5537 62.928 67.2017 63.388 66.7697 63.788C66.3457 64.188 65.8537 64.504 65.2937 64.736C64.7417 64.96 64.1377 65.072 63.4817 65.072ZM63.2417 61.436L63.5657 59.864H67.0697L66.7577 61.436H63.2417ZM68.5586 65L69.8906 58.7H71.7986L71.2946 61.064H71.7986C72.1506 60.816 72.4826 60.488 72.7946 60.08C73.1066 59.664 73.3746 59.204 73.5986 58.7H75.5546C75.2266 59.38 74.8506 59.98 74.4266 60.5C74.0026 61.012 73.5826 61.44 73.1666 61.784L74.6666 65H72.6146L71.5106 62.516H70.9946L70.4666 65H68.5586ZM77.9165 65.12C77.3245 65.12 76.8325 65 76.4405 64.76C76.0485 64.512 75.7565 64.188 75.5645 63.788C75.3725 63.388 75.2765 62.948 75.2765 62.468C75.2765 61.972 75.3725 61.496 75.5645 61.04C75.7565 60.576 76.0285 60.16 76.3805 59.792C76.7325 59.424 77.1525 59.132 77.6405 58.916C78.1365 58.692 78.6845 58.58 79.2845 58.58C79.9805 58.58 80.5325 58.736 80.9405 59.048C81.3565 59.352 81.6325 59.752 81.7685 60.248L79.7885 60.812C79.7165 60.62 79.6085 60.472 79.4645 60.368C79.3205 60.264 79.1445 60.212 78.9365 60.212C78.7205 60.212 78.5125 60.264 78.3125 60.368C78.1125 60.464 77.9325 60.604 77.7725 60.788C77.6205 60.972 77.4965 61.188 77.4005 61.436C77.3125 61.684 77.2685 61.956 77.2685 62.252C77.2685 62.5 77.3085 62.72 77.3885 62.912C77.4685 63.096 77.5805 63.24 77.7245 63.344C77.8765 63.448 78.0445 63.5 78.2285 63.5C78.3725 63.5 78.5125 63.476 78.6485 63.428C78.7925 63.372 78.9245 63.296 79.0445 63.2C79.1645 63.104 79.2645 62.996 79.3445 62.876L81.0965 63.452C80.8725 63.772 80.6005 64.06 80.2805 64.316C79.9605 64.564 79.6005 64.76 79.2005 64.904C78.8005 65.048 78.3725 65.12 77.9165 65.12ZM81.7188 65L83.0508 58.7H88.8588L87.5148 65H85.5948L86.6268 60.176H84.6588L83.6388 65H81.7188ZM90.0558 58.7H91.7358L91.5078 59.72C91.8038 59.36 92.1358 59.08 92.5038 58.88C92.8798 58.68 93.2918 58.58 93.7398 58.58C94.1958 58.58 94.5838 58.696 94.9037 58.928C95.2318 59.152 95.4838 59.456 95.6598 59.84C95.8358 60.224 95.9238 60.66 95.9238 61.148C95.9238 61.676 95.8318 62.18 95.6478 62.66C95.4638 63.132 95.2158 63.556 94.9037 63.932C94.5918 64.3 94.2318 64.592 93.8238 64.808C93.4158 65.016 92.9918 65.12 92.5518 65.12C92.1118 65.12 91.7438 65.02 91.4478 64.82C91.1598 64.612 90.9638 64.332 90.8598 63.98L90.0918 67.556H88.1717L90.0558 58.7ZM92.2398 63.5C92.4558 63.5 92.6638 63.444 92.8638 63.332C93.0638 63.212 93.2438 63.056 93.4038 62.864C93.5638 62.672 93.6878 62.456 93.7758 62.216C93.8718 61.968 93.9198 61.716 93.9198 61.46C93.9198 61.22 93.8758 61.008 93.7878 60.824C93.6998 60.632 93.5758 60.484 93.4158 60.38C93.2558 60.268 93.0638 60.212 92.8398 60.212C92.7278 60.212 92.6078 60.232 92.4798 60.272C92.3598 60.312 92.2398 60.372 92.1198 60.452C91.9998 60.524 91.8838 60.612 91.7718 60.716C91.6678 60.82 91.5678 60.94 91.4718 61.076L91.1958 62.372C91.2358 62.588 91.2998 62.78 91.3878 62.948C91.4838 63.116 91.6038 63.252 91.7478 63.356C91.8998 63.452 92.0638 63.5 92.2398 63.5ZM99.4777 65.12C98.9017 65.12 98.4017 65 97.9777 64.76C97.5617 64.512 97.2377 64.172 97.0057 63.74C96.7817 63.308 96.6697 62.82 96.6697 62.276C96.6617 61.756 96.7497 61.276 96.9337 60.836C97.1257 60.388 97.3937 59.996 97.7377 59.66C98.0817 59.324 98.4857 59.06 98.9497 58.868C99.4217 58.676 99.9337 58.58 100.486 58.58C100.958 58.58 101.374 58.652 101.734 58.796C102.094 58.932 102.378 59.136 102.586 59.408C102.794 59.672 102.91 59.996 102.934 60.38C102.966 61.06 102.678 61.58 102.07 61.94C101.47 62.3 100.55 62.48 99.3097 62.48C99.0457 62.48 98.7617 62.476 98.4577 62.468C98.1617 62.452 97.8577 62.428 97.5457 62.396L97.7497 61.208C97.9897 61.232 98.2297 61.252 98.4697 61.268C98.7177 61.276 98.9697 61.28 99.2257 61.28C99.6897 61.28 100.054 61.256 100.318 61.208C100.59 61.152 100.778 61.072 100.882 60.968C100.994 60.856 101.046 60.72 101.038 60.56C101.03 60.44 100.99 60.34 100.918 60.26C100.846 60.172 100.75 60.104 100.63 60.056C100.51 60.008 100.374 59.984 100.222 59.984C99.9977 59.984 99.7897 60.044 99.5977 60.164C99.4137 60.284 99.2497 60.452 99.1057 60.668C98.9617 60.884 98.8497 61.136 98.7697 61.424C98.6897 61.712 98.6497 62.024 98.6497 62.36C98.6417 62.648 98.6777 62.896 98.7577 63.104C98.8377 63.304 98.9577 63.456 99.1177 63.56C99.2857 63.664 99.4977 63.716 99.7537 63.716C99.9297 63.716 100.086 63.696 100.222 63.656C100.366 63.608 100.49 63.548 100.594 63.476C100.706 63.396 100.798 63.316 100.87 63.236C100.95 63.156 101.01 63.08 101.05 63.008L102.61 63.5C102.498 63.684 102.35 63.872 102.166 64.064C101.982 64.248 101.758 64.42 101.494 64.58C101.238 64.74 100.942 64.872 100.606 64.976C100.278 65.072 99.9017 65.12 99.4777 65.12ZM106.053 65.12C105.461 65.12 104.969 65 104.577 64.76C104.185 64.512 103.893 64.188 103.701 63.788C103.509 63.388 103.413 62.948 103.413 62.468C103.413 61.972 103.509 61.496 103.701 61.04C103.893 60.576 104.165 60.16 104.517 59.792C104.869 59.424 105.289 59.132 105.777 58.916C106.273 58.692 106.821 58.58 107.421 58.58C108.117 58.58 108.669 58.736 109.077 59.048C109.493 59.352 109.769 59.752 109.905 60.248L107.925 60.812C107.853 60.62 107.745 60.472 107.601 60.368C107.457 60.264 107.281 60.212 107.073 60.212C106.857 60.212 106.649 60.264 106.449 60.368C106.249 60.464 106.069 60.604 105.909 60.788C105.757 60.972 105.633 61.188 105.537 61.436C105.449 61.684 105.405 61.956 105.405 62.252C105.405 62.5 105.445 62.72 105.525 62.912C105.605 63.096 105.717 63.24 105.861 63.344C106.013 63.448 106.181 63.5 106.365 63.5C106.509 63.5 106.649 63.476 106.785 63.428C106.929 63.372 107.061 63.296 107.181 63.2C107.301 63.104 107.401 62.996 107.481 62.876L109.233 63.452C109.009 63.772 108.737 64.06 108.417 64.316C108.097 64.564 107.737 64.76 107.337 64.904C106.937 65.048 106.509 65.12 106.053 65.12ZM112.627 65.12C112.035 65.12 111.543 65 111.151 64.76C110.759 64.512 110.467 64.188 110.275 63.788C110.083 63.388 109.987 62.948 109.987 62.468C109.987 61.972 110.083 61.496 110.275 61.04C110.467 60.576 110.739 60.16 111.091 59.792C111.443 59.424 111.863 59.132 112.351 58.916C112.847 58.692 113.395 58.58 113.995 58.58C114.691 58.58 115.243 58.736 115.651 59.048C116.067 59.352 116.343 59.752 116.479 60.248L114.499 60.812C114.427 60.62 114.319 60.472 114.175 60.368C114.031 60.264 113.855 60.212 113.647 60.212C113.431 60.212 113.223 60.264 113.023 60.368C112.823 60.464 112.643 60.604 112.483 60.788C112.331 60.972 112.207 61.188 112.111 61.436C112.023 61.684 111.979 61.956 111.979 62.252C111.979 62.5 112.019 62.72 112.099 62.912C112.179 63.096 112.291 63.24 112.435 63.344C112.587 63.448 112.755 63.5 112.939 63.5C113.083 63.5 113.223 63.476 113.359 63.428C113.503 63.372 113.635 63.296 113.755 63.2C113.875 63.104 113.975 62.996 114.055 62.876L115.807 63.452C115.583 63.772 115.311 64.06 114.991 64.316C114.671 64.564 114.311 64.76 113.911 64.904C113.511 65.048 113.083 65.12 112.627 65.12ZM116.322 65L116.73 63.044H118.302L117.882 65H116.322ZM121.587 66.632L122.295 63.272H122.859C123.131 63.256 123.375 63.092 123.591 62.78C123.815 62.468 124.027 61.992 124.227 61.352C124.435 60.704 124.643 59.88 124.851 58.88L125.355 56.48H131.355L129.915 63.272H131.067L130.359 66.632H128.643L128.979 65H123.651L123.303 66.632H121.587ZM125.127 63.272H127.947L129.027 58.208H126.843L126.627 59.252C126.483 59.972 126.339 60.6 126.195 61.136C126.051 61.664 125.895 62.104 125.727 62.456C125.559 62.8 125.359 63.072 125.127 63.272ZM135.222 65.12C134.51 65.12 133.922 64.968 133.458 64.664C133.002 64.36 132.678 63.96 132.486 63.464C132.294 62.968 132.238 62.432 132.318 61.856C132.382 61.416 132.514 61 132.714 60.608C132.914 60.216 133.178 59.868 133.506 59.564C133.842 59.26 134.23 59.02 134.67 58.844C135.118 58.668 135.606 58.58 136.134 58.58C136.854 58.58 137.442 58.732 137.898 59.036C138.362 59.34 138.69 59.74 138.882 60.236C139.074 60.732 139.13 61.272 139.05 61.856C138.994 62.288 138.862 62.7 138.654 63.092C138.454 63.484 138.186 63.832 137.85 64.136C137.522 64.44 137.138 64.68 136.698 64.856C136.258 65.032 135.766 65.12 135.222 65.12ZM135.45 63.596C135.642 63.596 135.83 63.556 136.014 63.476C136.206 63.388 136.378 63.268 136.53 63.116C136.682 62.956 136.81 62.768 136.914 62.552C137.018 62.336 137.086 62.104 137.118 61.856C137.166 61.512 137.142 61.208 137.046 60.944C136.958 60.68 136.814 60.476 136.614 60.332C136.414 60.188 136.182 60.116 135.918 60.116C135.718 60.116 135.526 60.16 135.342 60.248C135.158 60.328 134.99 60.444 134.838 60.596C134.686 60.748 134.558 60.932 134.454 61.148C134.35 61.356 134.282 61.592 134.25 61.856C134.202 62.2 134.222 62.504 134.31 62.768C134.406 63.024 134.554 63.228 134.754 63.38C134.954 63.524 135.186 63.596 135.45 63.596ZM142.206 65.12C141.614 65.12 141.122 65 140.73 64.76C140.338 64.512 140.046 64.188 139.854 63.788C139.662 63.388 139.566 62.948 139.566 62.468C139.566 61.972 139.662 61.496 139.854 61.04C140.046 60.576 140.318 60.16 140.67 59.792C141.022 59.424 141.442 59.132 141.93 58.916C142.426 58.692 142.974 58.58 143.574 58.58C144.27 58.58 144.822 58.736 145.23 59.048C145.646 59.352 145.922 59.752 146.058 60.248L144.078 60.812C144.006 60.62 143.898 60.472 143.754 60.368C143.61 60.264 143.434 60.212 143.226 60.212C143.01 60.212 142.802 60.264 142.602 60.368C142.402 60.464 142.222 60.604 142.062 60.788C141.91 60.972 141.786 61.188 141.69 61.436C141.602 61.684 141.558 61.956 141.558 62.252C141.558 62.5 141.598 62.72 141.678 62.912C141.758 63.096 141.87 63.24 142.014 63.344C142.166 63.448 142.334 63.5 142.518 63.5C142.662 63.5 142.802 63.476 142.938 63.428C143.082 63.372 143.214 63.296 143.334 63.2C143.454 63.104 143.554 62.996 143.634 62.876L145.386 63.452C145.162 63.772 144.89 64.06 144.57 64.316C144.25 64.564 143.89 64.76 143.49 64.904C143.09 65.048 142.662 65.12 142.206 65.12ZM147.232 58.7H148.96L148.732 59.756C149.028 59.38 149.388 59.092 149.812 58.892C150.244 58.684 150.688 58.58 151.144 58.58C151.488 58.58 151.76 58.636 151.96 58.748C152.168 58.852 152.32 58.996 152.416 59.18C152.512 59.364 152.564 59.572 152.572 59.804C152.788 59.54 153.02 59.32 153.268 59.144C153.524 58.968 153.796 58.832 154.084 58.736C154.38 58.632 154.676 58.58 154.972 58.58C155.348 58.58 155.636 58.648 155.836 58.784C156.044 58.912 156.188 59.084 156.268 59.3C156.348 59.516 156.388 59.756 156.388 60.02C156.388 60.116 156.38 60.244 156.364 60.404C156.348 60.556 156.316 60.744 156.268 60.968L155.404 65H153.484L154.24 61.46C154.28 61.268 154.3 61.1 154.3 60.956C154.3 60.724 154.248 60.552 154.144 60.44C154.048 60.328 153.924 60.272 153.772 60.272C153.62 60.272 153.456 60.32 153.28 60.416C153.104 60.512 152.936 60.648 152.776 60.824C152.624 60.992 152.488 61.18 152.368 61.388L151.612 65H149.692L150.448 61.46C150.472 61.364 150.488 61.276 150.496 61.196C150.504 61.108 150.508 61.028 150.508 60.956C150.508 60.724 150.46 60.552 150.364 60.44C150.268 60.328 150.136 60.272 149.968 60.272C149.744 60.272 149.496 60.38 149.224 60.596C148.96 60.804 148.744 61.068 148.576 61.388L147.808 65H145.888L147.232 58.7ZM159.141 65.12C158.677 65.12 158.277 65.012 157.941 64.796C157.613 64.572 157.357 64.268 157.173 63.884C156.997 63.492 156.909 63.052 156.909 62.564C156.909 62.028 157.001 61.52 157.185 61.04C157.369 60.56 157.621 60.14 157.941 59.78C158.261 59.412 158.625 59.12 159.033 58.904C159.449 58.688 159.885 58.58 160.341 58.58C160.749 58.58 161.097 58.688 161.385 58.904C161.681 59.112 161.881 59.388 161.985 59.732L162.201 58.736H164.133L163.245 62.84C163.237 62.888 163.229 62.932 163.221 62.972C163.221 63.012 163.221 63.052 163.221 63.092C163.221 63.276 163.321 63.372 163.521 63.38L163.185 65C163.009 65.032 162.853 65.056 162.717 65.072C162.581 65.088 162.465 65.096 162.369 65.096C162.057 65.096 161.809 65.036 161.625 64.916C161.441 64.788 161.349 64.58 161.349 64.292C161.349 64.26 161.349 64.228 161.349 64.196C161.349 64.164 161.353 64.128 161.361 64.088C161.369 64.048 161.377 64.004 161.385 63.956C161.089 64.348 160.741 64.64 160.341 64.832C159.949 65.024 159.549 65.12 159.141 65.12ZM160.005 63.5C160.125 63.5 160.245 63.48 160.365 63.44C160.493 63.392 160.617 63.332 160.737 63.26C160.857 63.188 160.973 63.096 161.085 62.984C161.197 62.872 161.297 62.752 161.385 62.624L161.661 61.304C161.637 61.088 161.573 60.9 161.469 60.74C161.373 60.58 161.249 60.452 161.097 60.356C160.945 60.26 160.785 60.212 160.617 60.212C160.393 60.212 160.181 60.268 159.981 60.38C159.781 60.492 159.601 60.644 159.441 60.836C159.289 61.028 159.165 61.248 159.069 61.496C158.981 61.736 158.937 61.988 158.937 62.252C158.937 62.492 158.977 62.708 159.057 62.9C159.145 63.084 159.269 63.232 159.429 63.344C159.589 63.448 159.781 63.5 160.005 63.5ZM167.611 65.12C166.635 65.112 165.915 64.876 165.451 64.412C164.987 63.94 164.771 63.26 164.803 62.372C164.835 61.54 165.015 60.844 165.343 60.284C165.679 59.724 166.135 59.3 166.711 59.012C167.295 58.724 167.963 58.58 168.715 58.58C169.419 58.58 169.959 58.728 170.335 59.024C170.711 59.312 170.899 59.708 170.899 60.212C170.899 60.644 170.743 61.024 170.431 61.352C170.127 61.68 169.707 61.936 169.171 62.12C168.643 62.304 168.039 62.396 167.359 62.396C167.111 62.396 166.851 62.388 166.579 62.372C166.315 62.348 166.051 62.32 165.787 62.288L165.991 61.376C166.255 61.408 166.507 61.432 166.747 61.448C166.995 61.464 167.223 61.472 167.431 61.472C167.903 61.472 168.275 61.424 168.547 61.328C168.819 61.224 169.011 61.092 169.123 60.932C169.243 60.772 169.303 60.612 169.303 60.452C169.303 60.308 169.251 60.184 169.147 60.08C169.043 59.968 168.859 59.912 168.595 59.912C168.259 59.912 167.951 60.012 167.671 60.212C167.391 60.404 167.159 60.684 166.975 61.052C166.799 61.412 166.699 61.856 166.675 62.384C166.643 62.832 166.707 63.184 166.867 63.44C167.035 63.688 167.379 63.812 167.899 63.812C168.123 63.812 168.323 63.78 168.499 63.716C168.683 63.652 168.827 63.556 168.931 63.428C169.035 63.292 169.087 63.128 169.087 62.936C169.087 62.72 169.027 62.552 168.907 62.432C168.787 62.312 168.651 62.228 168.499 62.18C168.355 62.132 168.243 62.108 168.163 62.108L168.727 61.46C168.791 61.46 168.903 61.476 169.063 61.508C169.231 61.532 169.415 61.58 169.615 61.652C169.815 61.716 170.011 61.808 170.203 61.928C170.395 62.048 170.551 62.2 170.671 62.384C170.799 62.568 170.863 62.792 170.863 63.056C170.863 63.488 170.719 63.86 170.431 64.172C170.143 64.476 169.755 64.712 169.267 64.88C168.779 65.04 168.227 65.12 167.611 65.12ZM173.094 65.12C172.11 65.12 171.618 64.616 171.618 63.608C171.618 63.472 171.626 63.336 171.642 63.2C171.666 63.056 171.694 62.9 171.726 62.732L172.59 58.7H174.498L173.73 62.312C173.69 62.488 173.67 62.644 173.67 62.78C173.67 63.26 173.87 63.5 174.27 63.5C174.422 63.5 174.574 63.472 174.726 63.416C174.878 63.352 175.038 63.252 175.206 63.116C175.374 62.98 175.538 62.804 175.698 62.588L176.526 58.7H178.446L177.57 62.84C177.562 62.888 177.554 62.932 177.546 62.972C177.538 63.012 177.534 63.052 177.534 63.092C177.534 63.276 177.638 63.372 177.846 63.38L177.498 65C177.322 65.032 177.166 65.056 177.03 65.072C176.894 65.088 176.778 65.096 176.682 65.096C176.37 65.096 176.118 65.036 175.926 64.916C175.742 64.796 175.65 64.6 175.65 64.328C175.65 64.296 175.654 64.264 175.662 64.232C175.67 64.192 175.678 64.144 175.686 64.088C175.694 64.032 175.702 63.972 175.71 63.908C175.35 64.324 174.946 64.632 174.498 64.832C174.058 65.024 173.59 65.12 173.094 65.12ZM178.703 65L180.035 58.7H182.027L183.035 62.024L185.471 58.7H187.559L186.215 65H184.391L185.183 61.292L183.299 63.896H182.099L181.307 61.292L180.515 65H178.703ZM193.544 65.12C192.568 65.112 191.848 64.876 191.384 64.412C190.92 63.94 190.704 63.26 190.736 62.372C190.768 61.54 190.948 60.844 191.276 60.284C191.612 59.724 192.068 59.3 192.644 59.012C193.228 58.724 193.896 58.58 194.648 58.58C195.352 58.58 195.892 58.728 196.268 59.024C196.644 59.312 196.832 59.708 196.832 60.212C196.832 60.644 196.676 61.024 196.364 61.352C196.06 61.68 195.64 61.936 195.104 62.12C194.576 62.304 193.972 62.396 193.292 62.396C193.044 62.396 192.784 62.388 192.512 62.372C192.248 62.348 191.984 62.32 191.72 62.288L191.924 61.376C192.188 61.408 192.44 61.432 192.68 61.448C192.928 61.464 193.156 61.472 193.364 61.472C193.836 61.472 194.208 61.424 194.48 61.328C194.752 61.224 194.944 61.092 195.056 60.932C195.176 60.772 195.236 60.612 195.236 60.452C195.236 60.308 195.184 60.184 195.08 60.08C194.976 59.968 194.792 59.912 194.528 59.912C194.192 59.912 193.884 60.012 193.604 60.212C193.324 60.404 193.092 60.684 192.908 61.052C192.732 61.412 192.632 61.856 192.608 62.384C192.576 62.832 192.64 63.184 192.8 63.44C192.968 63.688 193.312 63.812 193.832 63.812C194.056 63.812 194.256 63.78 194.432 63.716C194.616 63.652 194.76 63.556 194.864 63.428C194.968 63.292 195.02 63.128 195.02 62.936C195.02 62.72 194.96 62.552 194.84 62.432C194.72 62.312 194.584 62.228 194.432 62.18C194.288 62.132 194.176 62.108 194.096 62.108L194.66 61.46C194.724 61.46 194.836 61.476 194.996 61.508C195.164 61.532 195.348 61.58 195.548 61.652C195.748 61.716 195.944 61.808 196.136 61.928C196.328 62.048 196.484 62.2 196.604 62.384C196.732 62.568 196.796 62.792 196.796 63.056C196.796 63.488 196.652 63.86 196.364 64.172C196.076 64.476 195.688 64.712 195.2 64.88C194.712 65.04 194.16 65.12 193.544 65.12ZM200.131 65.12C199.539 65.12 199.047 65 198.655 64.76C198.263 64.512 197.971 64.188 197.779 63.788C197.587 63.388 197.491 62.948 197.491 62.468C197.491 61.972 197.587 61.496 197.779 61.04C197.971 60.576 198.243 60.16 198.595 59.792C198.947 59.424 199.367 59.132 199.855 58.916C200.351 58.692 200.899 58.58 201.499 58.58C202.195 58.58 202.747 58.736 203.155 59.048C203.571 59.352 203.847 59.752 203.983 60.248L202.003 60.812C201.931 60.62 201.823 60.472 201.679 60.368C201.535 60.264 201.359 60.212 201.151 60.212C200.935 60.212 200.727 60.264 200.527 60.368C200.327 60.464 200.147 60.604 199.987 60.788C199.835 60.972 199.711 61.188 199.615 61.436C199.527 61.684 199.483 61.956 199.483 62.252C199.483 62.5 199.523 62.72 199.603 62.912C199.683 63.096 199.795 63.24 199.939 63.344C200.091 63.448 200.259 63.5 200.443 63.5C200.587 63.5 200.727 63.476 200.863 63.428C201.007 63.372 201.139 63.296 201.259 63.2C201.379 63.104 201.479 62.996 201.559 62.876L203.311 63.452C203.087 63.772 202.815 64.06 202.495 64.316C202.175 64.564 201.815 64.76 201.415 64.904C201.015 65.048 200.587 65.12 200.131 65.12ZM207.15 65.12C206.574 65.12 206.074 65 205.65 64.76C205.234 64.512 204.91 64.172 204.678 63.74C204.454 63.308 204.342 62.82 204.342 62.276C204.334 61.756 204.422 61.276 204.606 60.836C204.798 60.388 205.066 59.996 205.41 59.66C205.754 59.324 206.158 59.06 206.622 58.868C207.094 58.676 207.606 58.58 208.158 58.58C208.63 58.58 209.046 58.652 209.406 58.796C209.766 58.932 210.05 59.136 210.258 59.408C210.466 59.672 210.582 59.996 210.606 60.38C210.638 61.06 210.35 61.58 209.742 61.94C209.142 62.3 208.222 62.48 206.982 62.48C206.718 62.48 206.434 62.476 206.13 62.468C205.834 62.452 205.53 62.428 205.218 62.396L205.422 61.208C205.662 61.232 205.902 61.252 206.142 61.268C206.39 61.276 206.642 61.28 206.898 61.28C207.362 61.28 207.726 61.256 207.99 61.208C208.262 61.152 208.45 61.072 208.554 60.968C208.666 60.856 208.718 60.72 208.71 60.56C208.702 60.44 208.662 60.34 208.59 60.26C208.518 60.172 208.422 60.104 208.302 60.056C208.182 60.008 208.046 59.984 207.894 59.984C207.67 59.984 207.462 60.044 207.27 60.164C207.086 60.284 206.922 60.452 206.778 60.668C206.634 60.884 206.522 61.136 206.442 61.424C206.362 61.712 206.322 62.024 206.322 62.36C206.314 62.648 206.35 62.896 206.43 63.104C206.51 63.304 206.63 63.456 206.79 63.56C206.958 63.664 207.17 63.716 207.426 63.716C207.602 63.716 207.758 63.696 207.894 63.656C208.038 63.608 208.162 63.548 208.266 63.476C208.378 63.396 208.47 63.316 208.542 63.236C208.622 63.156 208.682 63.08 208.722 63.008L210.282 63.5C210.17 63.684 210.022 63.872 209.838 64.064C209.654 64.248 209.43 64.42 209.166 64.58C208.91 64.74 208.614 64.872 208.278 64.976C207.95 65.072 207.574 65.12 207.15 65.12ZM206.394 57.884L206.73 56.336H208.302L207.978 57.884H206.394ZM208.854 57.884L209.19 56.336H210.75L210.438 57.884H208.854ZM210.845 65L211.253 63.044H212.825L212.405 65H210.845Z" fill="black"/>
<defs>
<clipPath id="clip0_974_1586">
<rect width="50.0435" height="47" fill="white" transform="translate(1)"/>
</clipPath>
</defs>
</svg>
