<svg width="502" height="161" viewBox="0 0 502 161" fill="none" xmlns="http://www.w3.org/2000/svg">
<g clip-path="url(#clip0_1214_2958)">
<rect x="44.6211" y="0.255859" width="14.3907" height="110.329" fill="#3622F5"/>
<rect x="1.5" y="110.584" width="14.3907" height="52.7659" transform="rotate(-90 1.5 110.584)" fill="#3622F5"/>
<rect x="63.8086" y="14.6465" width="14.3907" height="55.1643" transform="rotate(-90 63.8086 14.6465)" fill="#E60029"/>
<rect x="63.8086" y="62.6155" width="14.3907" height="55.1643" transform="rotate(-90 63.8086 62.6155)" fill="#E60029"/>
<rect x="63.8086" y="110.584" width="14.3907" height="55.1643" transform="rotate(-90 63.8086 110.584)" fill="#E60029"/>
<rect x="63.8086" y="0.255859" width="14.3907" height="110.329" fill="#E60029"/>
</g>
<path d="M163.153 110.917C160.713 110.917 158.457 110.547 156.387 109.808C154.353 109.068 152.541 108.015 150.951 106.646C149.398 105.241 148.104 103.614 147.068 101.766L152.282 98.826C153.022 100.231 153.946 101.414 155.055 102.376C156.165 103.337 157.403 104.077 158.772 104.594C160.177 105.075 161.637 105.315 163.153 105.315C165.076 105.315 166.832 104.946 168.422 104.206C170.012 103.43 171.38 102.376 172.527 101.045C173.673 99.7134 174.523 98.1974 175.078 96.4965C175.67 94.7586 175.947 92.9467 175.91 91.0609L178.572 92.8913H159.659V88.0659H178.406L175.91 89.7298C175.873 88.0659 175.559 86.4574 174.967 84.9044C174.376 83.3144 173.544 81.9093 172.471 80.6891C171.399 79.4319 170.086 78.4335 168.533 77.694C166.98 76.9545 165.187 76.5847 163.153 76.5847C161.711 76.5847 160.306 76.825 158.938 77.3057C157.607 77.7494 156.405 78.452 155.333 79.4134C154.26 80.3378 153.373 81.5026 152.67 82.9077L147.623 79.5798C149.139 77.0654 151.154 75.0132 153.669 73.4232C156.183 71.7962 159.345 70.9828 163.153 70.9828C166.222 70.9828 168.94 71.5559 171.306 72.7022C173.71 73.8115 175.725 75.309 177.352 77.1948C179.016 79.0436 180.273 81.1513 181.124 83.5178C181.974 85.8842 182.399 88.3247 182.399 90.8391C182.399 93.4644 181.937 95.9788 181.013 98.3823C180.125 100.786 178.831 102.93 177.13 104.816C175.429 106.702 173.396 108.199 171.029 109.309C168.7 110.381 166.074 110.917 163.153 110.917ZM188.881 110.584V71.2046H195.093V87.6776H199.697L212.066 71.2046H219.165L204.689 90.2844L220.219 110.584H212.62L199.697 93.3905H195.093V110.584H188.881ZM221.158 90.6172C221.158 88.2138 221.583 85.8658 222.434 83.5732C223.284 81.2437 224.523 79.1361 226.15 77.2503C227.814 75.3275 229.829 73.8115 232.195 72.7022C234.562 71.5559 237.243 70.9828 240.238 70.9828C243.787 70.9828 246.856 71.7962 249.445 73.4232C252.033 75.0132 253.956 77.0654 255.213 79.5798L250.332 82.8522C249.593 81.2622 248.65 80.005 247.504 79.0806C246.394 78.1562 245.174 77.5091 243.843 77.1393C242.549 76.7696 241.273 76.5847 240.016 76.5847C237.945 76.5847 236.133 77.0099 234.58 77.8604C233.027 78.6739 231.715 79.7647 230.642 81.1328C229.607 82.5009 228.812 84.0354 228.257 85.7363C227.74 87.4373 227.481 89.1382 227.481 90.8391C227.481 92.7249 227.795 94.5552 228.424 96.3301C229.052 98.068 229.921 99.621 231.031 100.989C232.177 102.32 233.526 103.374 235.079 104.151C236.632 104.927 238.333 105.315 240.182 105.315C241.439 105.315 242.752 105.093 244.12 104.65C245.488 104.206 246.746 103.522 247.892 102.598C249.075 101.636 249.999 100.379 250.665 98.826L255.823 101.766C255.01 103.725 253.734 105.389 251.996 106.757C250.295 108.126 248.372 109.161 246.228 109.863C244.12 110.566 242.031 110.917 239.96 110.917C237.187 110.917 234.654 110.344 232.362 109.198C230.069 108.015 228.091 106.462 226.427 104.539C224.763 102.579 223.469 100.397 222.544 97.994C221.62 95.5536 221.158 93.0946 221.158 90.6172ZM261.624 110.584V71.2046H292.74V110.584H286.473V76.6956H267.837V110.584H261.624ZM301.651 110.584V71.2046H318.179C319.954 71.2046 321.581 71.5744 323.06 72.3139C324.539 73.0534 325.833 74.0333 326.943 75.2535C328.052 76.4738 328.902 77.8419 329.494 79.3579C330.086 80.874 330.381 82.427 330.381 84.0169C330.381 86.1985 329.882 88.2877 328.884 90.2844C327.923 92.2442 326.536 93.8342 324.724 95.0544C322.949 96.2746 320.879 96.8847 318.512 96.8847H307.863V110.584H301.651ZM307.863 91.3937H318.124C319.307 91.3937 320.342 91.0794 321.23 90.4508C322.117 89.7853 322.801 88.8978 323.282 87.7885C323.8 86.6792 324.059 85.422 324.059 84.0169C324.059 82.5749 323.763 81.2992 323.171 80.1899C322.579 79.0806 321.803 78.2301 320.842 77.6385C319.917 77.0099 318.9 76.6956 317.791 76.6956H307.863V91.3937ZM363.219 105.093V110.584H336.208V71.2046H362.72V76.6956H342.42V87.8995H360.002V93.0577H342.42V105.093H363.219ZM366.427 90.6172C366.427 88.2138 366.853 85.8658 367.703 83.5732C368.554 81.2437 369.792 79.1361 371.419 77.2503C373.083 75.3275 375.098 73.8115 377.465 72.7022C379.831 71.5559 382.512 70.9828 385.507 70.9828C389.057 70.9828 392.126 71.7962 394.714 73.4232C397.303 75.0132 399.225 77.0654 400.483 79.5798L395.602 82.8522C394.862 81.2622 393.919 80.005 392.773 79.0806C391.664 78.1562 390.444 77.5091 389.112 77.1393C387.818 76.7696 386.543 76.5847 385.285 76.5847C383.215 76.5847 381.403 77.0099 379.85 77.8604C378.297 78.6739 376.984 79.7647 375.912 81.1328C374.876 82.5009 374.082 84.0354 373.527 85.7363C373.009 87.4373 372.75 89.1382 372.75 90.8391C372.75 92.7249 373.065 94.5552 373.693 96.3301C374.322 98.068 375.191 99.621 376.3 100.989C377.446 102.32 378.796 103.374 380.349 104.151C381.902 104.927 383.603 105.315 385.452 105.315C386.709 105.315 388.022 105.093 389.39 104.65C390.758 104.206 392.015 103.522 393.161 102.598C394.345 101.636 395.269 100.379 395.935 98.826L401.093 101.766C400.279 103.725 399.004 105.389 397.266 106.757C395.565 108.126 393.642 109.161 391.497 109.863C389.39 110.566 387.301 110.917 385.23 110.917C382.457 110.917 379.924 110.344 377.631 109.198C375.339 108.015 373.36 106.462 371.697 104.539C370.033 102.579 368.738 100.397 367.814 97.994C366.89 95.5536 366.427 93.0946 366.427 90.6172ZM403.855 90.6172C403.855 88.2138 404.28 85.8658 405.131 83.5732C405.981 81.2437 407.22 79.1361 408.847 77.2503C410.511 75.3275 412.526 73.8115 414.893 72.7022C417.259 71.5559 419.94 70.9828 422.935 70.9828C426.485 70.9828 429.554 71.7962 432.142 73.4232C434.73 75.0132 436.653 77.0654 437.91 79.5798L433.03 82.8522C432.29 81.2622 431.347 80.005 430.201 79.0806C429.092 78.1562 427.871 77.5091 426.54 77.1393C425.246 76.7696 423.97 76.5847 422.713 76.5847C420.642 76.5847 418.831 77.0099 417.278 77.8604C415.725 78.6739 414.412 79.7647 413.34 81.1328C412.304 82.5009 411.509 84.0354 410.955 85.7363C410.437 87.4373 410.178 89.1382 410.178 90.8391C410.178 92.7249 410.492 94.5552 411.121 96.3301C411.75 98.068 412.619 99.621 413.728 100.989C414.874 102.32 416.224 103.374 417.777 104.151C419.33 104.927 421.031 105.315 422.879 105.315C424.137 105.315 425.449 105.093 426.817 104.65C428.186 104.206 429.443 103.522 430.589 102.598C431.772 101.636 432.697 100.379 433.362 98.826L438.52 101.766C437.707 103.725 436.431 105.389 434.693 106.757C432.993 108.126 431.07 109.161 428.925 109.863C426.817 110.566 424.728 110.917 422.658 110.917C419.884 110.917 417.352 110.344 415.059 109.198C412.766 108.015 410.788 106.462 409.124 104.539C407.46 102.579 406.166 100.397 405.242 97.994C404.317 95.5536 403.855 93.0946 403.855 90.6172Z" fill="black"/>
<path d="M0.992958 153.185L1.80986 149.185C2.42958 149.185 2.97418 149.035 3.44366 148.735C3.93193 148.434 4.38263 147.918 4.79577 147.185C5.2277 146.453 5.65023 145.439 6.06338 144.143C6.49531 142.829 6.96479 141.167 7.47183 139.157L8.99296 133.016H22.8803L18.6549 153.016H14.0352L17.4155 137.073H12.4296L11.5845 140.509C10.946 143.026 10.3075 145.11 9.66901 146.763C9.0493 148.415 8.34507 149.711 7.55634 150.65C6.78639 151.57 5.8662 152.228 4.79577 152.622C3.74413 152.998 2.47653 153.185 0.992958 153.185ZM22.3792 153.016L25.5059 138.228H30.013L28.8581 143.664H32.4637L31.5904 147.495H28.0412L26.8862 153.016H22.3792ZM37.3651 153.298C35.6937 153.298 34.3135 152.941 33.2243 152.228C32.1538 151.514 31.3839 150.575 30.9144 149.411C30.4637 148.246 30.3322 146.988 30.52 145.636C30.6703 144.622 30.9801 143.655 31.4496 142.735C31.9379 141.796 32.567 140.969 33.3369 140.256C34.1257 139.542 35.0365 138.979 36.0693 138.566C37.121 138.153 38.2665 137.946 39.5059 137.946C41.1773 137.946 42.5482 138.303 43.6186 139.016C44.7078 139.73 45.4778 140.669 45.9285 141.833C46.398 142.998 46.5388 144.265 46.351 145.636C46.2196 146.65 45.9097 147.617 45.4214 148.538C44.952 149.458 44.3228 150.275 43.5341 150.988C42.7642 151.702 41.8627 152.265 40.8299 152.678C39.797 153.092 38.6421 153.298 37.3651 153.298ZM37.9003 149.721C38.351 149.721 38.7923 149.627 39.2243 149.439C39.675 149.232 40.0787 148.951 40.4355 148.594C40.7923 148.218 41.0928 147.777 41.3369 147.27C41.5811 146.763 41.7407 146.218 41.8158 145.636C41.9285 144.829 41.8721 144.115 41.6468 143.495C41.4402 142.876 41.1022 142.397 40.6327 142.059C40.1632 141.721 39.6186 141.552 38.9989 141.552C38.5294 141.552 38.0787 141.655 37.6468 141.861C37.2149 142.049 36.8111 142.322 36.4355 142.678C36.0787 143.035 35.7782 143.467 35.5341 143.974C35.3088 144.462 35.1491 145.016 35.0552 145.636C34.9613 146.444 35.0177 147.157 35.2243 147.777C35.4496 148.378 35.797 148.857 36.2665 149.214C36.736 149.552 37.2806 149.721 37.9003 149.721ZM55.5852 153.298C52.9561 153.298 51.0593 152.519 49.895 150.96C48.7307 149.383 48.4021 147.148 48.9091 144.256C49.3598 141.796 49.9983 139.796 50.8246 138.256C51.6697 136.716 52.7213 135.542 53.9795 134.735C55.2565 133.927 56.7589 133.383 58.4866 133.101C59.0875 132.969 59.6603 132.866 60.2049 132.791C60.7683 132.716 61.2659 132.603 61.6978 132.453C62.1298 132.284 62.4396 132.012 62.6274 131.636L65.5852 132.847C65.3786 133.768 65.05 134.472 64.5993 134.96C64.1485 135.448 63.4913 135.815 62.6274 136.059C61.7824 136.303 60.6556 136.519 59.2471 136.707C58.0453 136.876 57.0687 137.157 56.3176 137.552C55.5664 137.927 54.9561 138.453 54.4866 139.129C54.0359 139.805 53.6321 140.669 53.2753 141.721C53.895 141.007 54.665 140.444 55.5852 140.031C56.5054 139.599 57.5476 139.383 58.7119 139.383C59.9889 139.383 61.0687 139.664 61.9514 140.228C62.834 140.791 63.4819 141.57 63.895 142.566C64.3082 143.542 64.4208 144.678 64.2331 145.974C64.0453 147.364 63.5758 148.613 62.8246 149.721C62.0922 150.829 61.1157 151.702 59.895 152.34C58.6744 152.979 57.2377 153.298 55.5852 153.298ZM55.9232 149.721C56.8809 149.721 57.6885 149.411 58.3457 148.791C59.0218 148.153 59.4349 147.326 59.5852 146.312C59.7166 145.336 59.5382 144.538 59.05 143.918C58.5805 143.279 57.8669 142.96 56.9091 142.96C56.3082 142.96 55.7448 143.11 55.219 143.411C54.6931 143.692 54.2612 144.087 53.9232 144.594C53.5852 145.082 53.3692 145.655 53.2753 146.312C53.1626 146.969 53.2002 147.561 53.388 148.087C53.5758 148.594 53.8856 148.998 54.3176 149.298C54.7495 149.58 55.2847 149.721 55.9232 149.721ZM64.6195 153.016C65.3707 150.556 66.488 148.087 67.9716 145.608C69.474 143.11 71.2768 140.65 73.3801 138.228H78.0279L79.8871 153.016H75.211L74.5913 142.059C73.9153 143.092 73.3049 144.049 72.7603 144.932C72.2345 145.815 71.7556 146.688 71.3237 147.552C70.9106 148.397 70.5162 149.27 70.1406 150.171C69.765 151.054 69.3894 152.002 69.0139 153.016H64.6195ZM85.7412 153.298C83.4313 153.298 82.2764 152.115 82.2764 149.749C82.2764 149.43 82.2952 149.11 82.3327 148.791C82.3891 148.453 82.4548 148.087 82.5299 147.692L84.5581 138.228H89.037L87.2342 146.707C87.1403 147.12 87.0933 147.486 87.0933 147.805C87.0933 148.932 87.5628 149.495 88.5018 149.495C88.8586 149.495 89.2154 149.43 89.5722 149.298C89.929 149.148 90.3046 148.913 90.6989 148.594C91.0933 148.275 91.4783 147.861 91.8539 147.354L93.7975 138.228H98.3046L96.2482 147.946C96.2295 148.059 96.2107 148.162 96.1919 148.256C96.1731 148.35 96.1637 148.444 96.1637 148.538C96.1637 148.969 96.4079 149.195 96.8961 149.214L96.0792 153.016C95.6661 153.092 95.2999 153.148 94.9806 153.185C94.6614 153.223 94.3891 153.242 94.1637 153.242C93.4313 153.242 92.8398 153.101 92.3891 152.819C91.9572 152.538 91.7412 152.077 91.7412 151.439C91.7412 151.364 91.7506 151.289 91.7694 151.214C91.7881 151.12 91.8069 151.007 91.8257 150.876C91.8445 150.744 91.8633 150.603 91.882 150.453C91.037 151.43 90.0886 152.153 89.037 152.622C88.0041 153.073 86.9055 153.298 85.7412 153.298ZM98.9087 153.016L102.035 138.228H106.542L105.359 143.749H110.402L111.585 138.228H116.092L112.937 153.016H108.43L109.669 147.157H104.655L103.416 153.016H98.9087ZM123.849 153.298C122.177 153.298 120.797 152.941 119.708 152.228C118.638 151.514 117.877 150.575 117.426 149.411C116.976 148.246 116.844 146.988 117.032 145.636C117.182 144.603 117.492 143.627 117.961 142.707C118.431 141.786 119.051 140.969 119.821 140.256C120.609 139.542 121.52 138.979 122.553 138.566C123.605 138.153 124.75 137.946 125.99 137.946C127.68 137.946 129.06 138.303 130.131 139.016C131.22 139.73 131.99 140.669 132.44 141.833C132.891 142.998 133.023 144.265 132.835 145.636C132.703 146.65 132.393 147.617 131.905 148.538C131.436 149.458 130.807 150.275 130.018 150.988C129.248 151.702 128.346 152.265 127.314 152.678C126.281 153.092 125.126 153.298 123.849 153.298ZM124.384 149.721C124.835 149.721 125.276 149.627 125.708 149.439C126.159 149.232 126.562 148.951 126.919 148.594C127.276 148.218 127.577 147.777 127.821 147.27C128.065 146.763 128.224 146.218 128.3 145.636C128.412 144.829 128.356 144.115 128.131 143.495C127.924 142.876 127.586 142.397 127.116 142.059C126.647 141.721 126.102 141.552 125.483 141.552C125.013 141.552 124.562 141.655 124.131 141.861C123.699 142.049 123.304 142.322 122.947 142.678C122.591 143.035 122.29 143.467 122.046 143.974C121.802 144.462 121.642 145.016 121.567 145.636C121.454 146.444 121.501 147.157 121.708 147.777C121.933 148.378 122.281 148.857 122.75 149.214C123.22 149.552 123.764 149.721 124.384 149.721ZM148.171 153.185C146.818 153.185 145.645 152.998 144.649 152.622C143.654 152.228 142.818 151.683 142.142 150.988C141.466 150.275 140.922 149.467 140.509 148.566L144.649 146.312C144.856 146.876 145.147 147.364 145.523 147.777C145.898 148.19 146.358 148.509 146.903 148.735C147.448 148.96 148.077 149.073 148.79 149.073C149.673 149.073 150.462 148.913 151.156 148.594C151.87 148.275 152.48 147.833 152.987 147.27C153.513 146.707 153.936 146.059 154.255 145.326C154.593 144.594 154.818 143.815 154.931 142.988C155.1 141.824 155.053 140.791 154.79 139.89C154.527 138.988 154.039 138.284 153.325 137.777C152.631 137.27 151.71 137.016 150.565 137.016C149.513 137.016 148.565 137.27 147.72 137.777C146.894 138.265 146.218 138.941 145.692 139.805L142.396 137.242C143.429 135.965 144.649 134.923 146.058 134.115C147.466 133.307 149.194 132.904 151.241 132.904C152.818 132.904 154.18 133.185 155.325 133.749C156.471 134.312 157.391 135.073 158.086 136.031C158.781 136.969 159.26 138.049 159.523 139.27C159.786 140.472 159.814 141.739 159.607 143.073C159.419 144.425 159.006 145.711 158.368 146.932C157.729 148.153 156.903 149.232 155.889 150.171C154.894 151.11 153.739 151.852 152.424 152.397C151.128 152.923 149.71 153.185 148.171 153.185ZM147.607 144.65L148.368 140.96H156.593L155.861 144.65H147.607ZM160.088 153.016L163.215 138.228H167.694L166.511 143.777H167.694C168.52 143.195 169.3 142.425 170.032 141.467C170.764 140.491 171.393 139.411 171.919 138.228H176.511C175.741 139.824 174.858 141.232 173.863 142.453C172.868 143.655 171.882 144.66 170.905 145.467L174.426 153.016H169.609L167.018 147.185H165.807L164.567 153.016H160.088ZM182.055 153.298C180.666 153.298 179.511 153.016 178.59 152.453C177.67 151.871 176.985 151.11 176.534 150.171C176.083 149.232 175.858 148.2 175.858 147.073C175.858 145.908 176.083 144.791 176.534 143.721C176.985 142.631 177.623 141.655 178.45 140.791C179.276 139.927 180.262 139.242 181.407 138.735C182.572 138.209 183.858 137.946 185.267 137.946C186.9 137.946 188.196 138.312 189.154 139.045C190.13 139.758 190.778 140.697 191.097 141.861L186.45 143.185C186.281 142.735 186.027 142.387 185.689 142.143C185.351 141.899 184.938 141.777 184.45 141.777C183.943 141.777 183.454 141.899 182.985 142.143C182.515 142.369 182.093 142.697 181.717 143.129C181.36 143.561 181.069 144.068 180.844 144.65C180.637 145.232 180.534 145.871 180.534 146.566C180.534 147.148 180.628 147.664 180.816 148.115C181.004 148.547 181.267 148.885 181.605 149.129C181.961 149.373 182.356 149.495 182.788 149.495C183.126 149.495 183.454 149.439 183.774 149.326C184.112 149.195 184.421 149.016 184.703 148.791C184.985 148.566 185.22 148.312 185.407 148.031L189.52 149.383C188.994 150.134 188.356 150.81 187.605 151.411C186.853 151.993 186.008 152.453 185.069 152.791C184.13 153.129 183.126 153.298 182.055 153.298ZM190.981 153.016L194.107 138.228H207.741L204.586 153.016H200.079L202.502 141.692H197.882L195.488 153.016H190.981ZM210.551 138.228H214.495L213.959 140.622C214.654 139.777 215.434 139.12 216.298 138.65C217.18 138.181 218.147 137.946 219.199 137.946C220.269 137.946 221.18 138.218 221.931 138.763C222.701 139.289 223.293 140.002 223.706 140.904C224.119 141.805 224.326 142.829 224.326 143.974C224.326 145.214 224.11 146.397 223.678 147.523C223.246 148.631 222.664 149.627 221.931 150.509C221.199 151.373 220.354 152.059 219.396 152.566C218.438 153.054 217.443 153.298 216.41 153.298C215.377 153.298 214.513 153.063 213.819 152.594C213.143 152.106 212.683 151.448 212.438 150.622L210.636 159.016H206.129L210.551 138.228ZM215.678 149.495C216.185 149.495 216.673 149.364 217.143 149.101C217.612 148.819 218.035 148.453 218.41 148.002C218.786 147.552 219.077 147.045 219.283 146.481C219.509 145.899 219.621 145.307 219.621 144.707C219.621 144.143 219.518 143.646 219.312 143.214C219.105 142.763 218.814 142.415 218.438 142.171C218.063 141.908 217.612 141.777 217.086 141.777C216.823 141.777 216.542 141.824 216.241 141.918C215.959 142.012 215.678 142.153 215.396 142.34C215.114 142.509 214.842 142.716 214.579 142.96C214.335 143.204 214.1 143.486 213.875 143.805L213.227 146.847C213.321 147.354 213.471 147.805 213.678 148.2C213.903 148.594 214.185 148.913 214.523 149.157C214.88 149.383 215.265 149.495 215.678 149.495ZM232.668 153.298C231.316 153.298 230.143 153.016 229.147 152.453C228.171 151.871 227.41 151.073 226.866 150.059C226.34 149.045 226.077 147.899 226.077 146.622C226.058 145.401 226.265 144.275 226.697 143.242C227.147 142.19 227.776 141.27 228.584 140.481C229.391 139.692 230.34 139.073 231.429 138.622C232.537 138.171 233.739 137.946 235.035 137.946C236.143 137.946 237.119 138.115 237.964 138.453C238.809 138.772 239.476 139.251 239.964 139.89C240.452 140.509 240.725 141.27 240.781 142.171C240.856 143.768 240.18 144.988 238.753 145.833C237.344 146.678 235.185 147.101 232.274 147.101C231.654 147.101 230.988 147.092 230.274 147.073C229.579 147.035 228.866 146.979 228.133 146.904L228.612 144.115C229.175 144.171 229.739 144.218 230.302 144.256C230.884 144.275 231.476 144.284 232.077 144.284C233.166 144.284 234.02 144.228 234.64 144.115C235.279 143.984 235.72 143.796 235.964 143.552C236.227 143.289 236.349 142.969 236.33 142.594C236.312 142.312 236.218 142.077 236.049 141.89C235.88 141.683 235.654 141.523 235.373 141.411C235.091 141.298 234.772 141.242 234.415 141.242C233.889 141.242 233.401 141.383 232.95 141.664C232.518 141.946 232.133 142.34 231.795 142.847C231.457 143.354 231.194 143.946 231.006 144.622C230.819 145.298 230.725 146.031 230.725 146.819C230.706 147.495 230.79 148.077 230.978 148.566C231.166 149.035 231.448 149.392 231.823 149.636C232.218 149.88 232.715 150.002 233.316 150.002C233.729 150.002 234.096 149.955 234.415 149.861C234.753 149.749 235.044 149.608 235.288 149.439C235.551 149.251 235.767 149.063 235.936 148.876C236.124 148.688 236.265 148.509 236.359 148.34L240.02 149.495C239.758 149.927 239.41 150.369 238.978 150.819C238.546 151.251 238.02 151.655 237.401 152.031C236.8 152.406 236.105 152.716 235.316 152.96C234.546 153.185 233.664 153.298 232.668 153.298ZM248.104 153.298C246.714 153.298 245.559 153.016 244.639 152.453C243.719 151.871 243.033 151.11 242.583 150.171C242.132 149.232 241.907 148.2 241.907 147.073C241.907 145.908 242.132 144.791 242.583 143.721C243.033 142.631 243.672 141.655 244.498 140.791C245.325 139.927 246.31 139.242 247.456 138.735C248.62 138.209 249.907 137.946 251.315 137.946C252.949 137.946 254.245 138.312 255.202 139.045C256.179 139.758 256.827 140.697 257.146 141.861L252.498 143.185C252.329 142.735 252.076 142.387 251.738 142.143C251.4 141.899 250.987 141.777 250.498 141.777C249.991 141.777 249.503 141.899 249.033 142.143C248.564 142.369 248.141 142.697 247.766 143.129C247.409 143.561 247.118 144.068 246.893 144.65C246.686 145.232 246.583 145.871 246.583 146.566C246.583 147.148 246.677 147.664 246.864 148.115C247.052 148.547 247.315 148.885 247.653 149.129C248.01 149.373 248.404 149.495 248.836 149.495C249.174 149.495 249.503 149.439 249.822 149.326C250.16 149.195 250.47 149.016 250.752 148.791C251.033 148.566 251.268 148.312 251.456 148.031L255.569 149.383C255.043 150.134 254.404 150.81 253.653 151.411C252.902 151.993 252.057 152.453 251.118 152.791C250.179 153.129 249.174 153.298 248.104 153.298ZM263.536 153.298C262.147 153.298 260.992 153.016 260.072 152.453C259.151 151.871 258.466 151.11 258.015 150.171C257.564 149.232 257.339 148.2 257.339 147.073C257.339 145.908 257.564 144.791 258.015 143.721C258.466 142.631 259.104 141.655 259.931 140.791C260.757 139.927 261.743 139.242 262.888 138.735C264.053 138.209 265.339 137.946 266.748 137.946C268.381 137.946 269.677 138.312 270.635 139.045C271.611 139.758 272.259 140.697 272.579 141.861L267.931 143.185C267.762 142.735 267.508 142.387 267.17 142.143C266.832 141.899 266.419 141.777 265.931 141.777C265.424 141.777 264.935 141.899 264.466 142.143C263.996 142.369 263.574 142.697 263.198 143.129C262.841 143.561 262.55 144.068 262.325 144.65C262.118 145.232 262.015 145.871 262.015 146.566C262.015 147.148 262.109 147.664 262.297 148.115C262.485 148.547 262.748 148.885 263.086 149.129C263.442 149.373 263.837 149.495 264.269 149.495C264.607 149.495 264.935 149.439 265.255 149.326C265.593 149.195 265.903 149.016 266.184 148.791C266.466 148.566 266.701 148.312 266.888 148.031L271.001 149.383C270.475 150.134 269.837 150.81 269.086 151.411C268.334 151.993 267.489 152.453 266.55 152.791C265.611 153.129 264.607 153.298 263.536 153.298ZM272.208 153.016L273.166 148.425H276.856L275.87 153.016H272.208ZM284.567 156.847L286.229 148.96H287.553C288.192 148.923 288.765 148.538 289.272 147.805C289.797 147.073 290.295 145.955 290.765 144.453C291.253 142.932 291.741 140.998 292.229 138.65L293.412 133.016H307.497L304.117 148.96H306.821L305.159 156.847H301.131L301.919 153.016H289.412L288.596 156.847H284.567ZM292.877 148.96H299.497L302.032 137.073H296.905L296.398 139.523C296.06 141.214 295.722 142.688 295.384 143.946C295.046 145.185 294.68 146.218 294.286 147.045C293.891 147.852 293.422 148.491 292.877 148.96ZM316.575 153.298C314.904 153.298 313.524 152.941 312.435 152.228C311.364 151.514 310.604 150.575 310.153 149.411C309.702 148.246 309.571 146.988 309.759 145.636C309.909 144.603 310.219 143.627 310.688 142.707C311.158 141.786 311.777 140.969 312.547 140.256C313.336 139.542 314.247 138.979 315.28 138.566C316.331 138.153 317.477 137.946 318.716 137.946C320.406 137.946 321.787 138.303 322.857 139.016C323.946 139.73 324.716 140.669 325.167 141.833C325.618 142.998 325.749 144.265 325.561 145.636C325.43 146.65 325.12 147.617 324.632 148.538C324.162 149.458 323.533 150.275 322.745 150.988C321.975 151.702 321.073 152.265 320.04 152.678C319.007 153.092 317.852 153.298 316.575 153.298ZM317.111 149.721C317.561 149.721 318.003 149.627 318.435 149.439C318.885 149.232 319.289 148.951 319.646 148.594C320.003 148.218 320.303 147.777 320.547 147.27C320.791 146.763 320.951 146.218 321.026 145.636C321.139 144.829 321.083 144.115 320.857 143.495C320.651 142.876 320.313 142.397 319.843 142.059C319.374 141.721 318.829 141.552 318.209 141.552C317.74 141.552 317.289 141.655 316.857 141.861C316.425 142.049 316.031 142.322 315.674 142.678C315.317 143.035 315.017 143.467 314.773 143.974C314.529 144.462 314.369 145.016 314.294 145.636C314.181 146.444 314.228 147.157 314.435 147.777C314.66 148.378 315.007 148.857 315.477 149.214C315.946 149.552 316.491 149.721 317.111 149.721ZM332.969 153.298C331.579 153.298 330.424 153.016 329.504 152.453C328.584 151.871 327.898 151.11 327.447 150.171C326.997 149.232 326.771 148.2 326.771 147.073C326.771 145.908 326.997 144.791 327.447 143.721C327.898 142.631 328.537 141.655 329.363 140.791C330.189 139.927 331.175 139.242 332.321 138.735C333.485 138.209 334.771 137.946 336.18 137.946C337.814 137.946 339.109 138.312 340.067 139.045C341.044 139.758 341.692 140.697 342.011 141.861L337.363 143.185C337.194 142.735 336.94 142.387 336.602 142.143C336.264 141.899 335.851 141.777 335.363 141.777C334.856 141.777 334.368 141.899 333.898 142.143C333.429 142.369 333.006 142.697 332.631 143.129C332.274 143.561 331.983 144.068 331.757 144.65C331.551 145.232 331.447 145.871 331.447 146.566C331.447 147.148 331.541 147.664 331.729 148.115C331.917 148.547 332.18 148.885 332.518 149.129C332.875 149.373 333.269 149.495 333.701 149.495C334.039 149.495 334.368 149.439 334.687 149.326C335.025 149.195 335.335 149.016 335.616 148.791C335.898 148.566 336.133 148.312 336.321 148.031L340.433 149.383C339.907 150.134 339.269 150.81 338.518 151.411C337.767 151.993 336.922 152.453 335.983 152.791C335.044 153.129 334.039 153.298 332.969 153.298ZM344.767 138.228H348.823L348.288 140.707C348.983 139.824 349.828 139.148 350.823 138.678C351.838 138.19 352.88 137.946 353.95 137.946C354.758 137.946 355.396 138.077 355.866 138.34C356.354 138.584 356.711 138.923 356.936 139.354C357.162 139.786 357.284 140.275 357.302 140.819C357.809 140.2 358.354 139.683 358.936 139.27C359.537 138.857 360.176 138.538 360.852 138.312C361.547 138.068 362.241 137.946 362.936 137.946C363.819 137.946 364.495 138.106 364.964 138.425C365.453 138.725 365.791 139.129 365.978 139.636C366.166 140.143 366.26 140.707 366.26 141.326C366.26 141.552 366.241 141.852 366.204 142.228C366.166 142.584 366.091 143.026 365.978 143.552L363.95 153.016H359.443L361.218 144.707C361.312 144.256 361.359 143.861 361.359 143.523C361.359 142.979 361.237 142.575 360.993 142.312C360.767 142.049 360.476 141.918 360.119 141.918C359.762 141.918 359.377 142.031 358.964 142.256C358.551 142.481 358.157 142.8 357.781 143.214C357.424 143.608 357.105 144.049 356.823 144.538L355.049 153.016H350.542L352.316 144.707C352.373 144.481 352.41 144.275 352.429 144.087C352.448 143.88 352.457 143.692 352.457 143.523C352.457 142.979 352.345 142.575 352.119 142.312C351.894 142.049 351.584 141.918 351.19 141.918C350.664 141.918 350.082 142.171 349.443 142.678C348.823 143.167 348.316 143.786 347.922 144.538L346.119 153.016H341.612L344.767 138.228ZM372.724 153.298C371.635 153.298 370.696 153.045 369.907 152.538C369.137 152.012 368.536 151.298 368.104 150.397C367.691 149.477 367.484 148.444 367.484 147.298C367.484 146.04 367.7 144.847 368.132 143.721C368.564 142.594 369.156 141.608 369.907 140.763C370.658 139.899 371.513 139.214 372.47 138.707C373.447 138.2 374.47 137.946 375.541 137.946C376.498 137.946 377.315 138.2 377.991 138.707C378.686 139.195 379.156 139.843 379.4 140.65L379.907 138.312H384.442L382.358 147.946C382.339 148.059 382.32 148.162 382.301 148.256C382.301 148.35 382.301 148.444 382.301 148.538C382.301 148.969 382.536 149.195 383.005 149.214L382.217 153.016C381.804 153.092 381.437 153.148 381.118 153.185C380.799 153.223 380.527 153.242 380.301 153.242C379.569 153.242 378.987 153.101 378.555 152.819C378.123 152.519 377.907 152.031 377.907 151.354C377.907 151.279 377.907 151.204 377.907 151.129C377.907 151.054 377.916 150.969 377.935 150.876C377.954 150.782 377.973 150.678 377.991 150.566C377.297 151.486 376.48 152.171 375.541 152.622C374.621 153.073 373.682 153.298 372.724 153.298ZM374.752 149.495C375.034 149.495 375.315 149.448 375.597 149.354C375.898 149.242 376.189 149.101 376.47 148.932C376.752 148.763 377.024 148.547 377.287 148.284C377.55 148.021 377.785 147.739 377.991 147.439L378.639 144.34C378.583 143.833 378.433 143.392 378.189 143.016C377.963 142.641 377.672 142.34 377.315 142.115C376.959 141.89 376.583 141.777 376.189 141.777C375.663 141.777 375.165 141.908 374.696 142.171C374.226 142.434 373.804 142.791 373.428 143.242C373.071 143.692 372.78 144.209 372.555 144.791C372.348 145.354 372.245 145.946 372.245 146.566C372.245 147.129 372.339 147.636 372.527 148.087C372.733 148.519 373.024 148.866 373.4 149.129C373.775 149.373 374.226 149.495 374.752 149.495ZM392.605 153.298C390.314 153.279 388.624 152.725 387.535 151.636C386.446 150.528 385.939 148.932 386.014 146.847C386.089 144.894 386.511 143.261 387.281 141.946C388.07 140.631 389.14 139.636 390.493 138.96C391.863 138.284 393.431 137.946 395.197 137.946C396.849 137.946 398.117 138.293 399 138.988C399.882 139.664 400.324 140.594 400.324 141.777C400.324 142.791 399.957 143.683 399.225 144.453C398.511 145.223 397.525 145.824 396.267 146.256C395.028 146.688 393.61 146.904 392.014 146.904C391.431 146.904 390.821 146.885 390.183 146.847C389.563 146.791 388.943 146.725 388.324 146.65L388.802 144.509C389.422 144.584 390.014 144.641 390.577 144.678C391.159 144.716 391.694 144.735 392.183 144.735C393.291 144.735 394.164 144.622 394.802 144.397C395.441 144.153 395.892 143.843 396.155 143.467C396.436 143.092 396.577 142.716 396.577 142.34C396.577 142.002 396.455 141.711 396.211 141.467C395.967 141.204 395.535 141.073 394.915 141.073C394.126 141.073 393.403 141.307 392.746 141.777C392.089 142.228 391.544 142.885 391.112 143.749C390.699 144.594 390.464 145.636 390.408 146.876C390.333 147.927 390.483 148.754 390.859 149.354C391.253 149.937 392.061 150.228 393.281 150.228C393.807 150.228 394.277 150.153 394.69 150.002C395.122 149.852 395.46 149.627 395.704 149.326C395.948 149.007 396.07 148.622 396.07 148.171C396.07 147.664 395.929 147.27 395.647 146.988C395.366 146.707 395.047 146.509 394.69 146.397C394.352 146.284 394.089 146.228 393.901 146.228L395.225 144.707C395.375 144.707 395.638 144.744 396.014 144.819C396.408 144.876 396.84 144.988 397.309 145.157C397.779 145.307 398.239 145.523 398.69 145.805C399.14 146.087 399.507 146.444 399.788 146.876C400.089 147.307 400.239 147.833 400.239 148.453C400.239 149.467 399.901 150.34 399.225 151.073C398.549 151.786 397.638 152.34 396.493 152.735C395.347 153.11 394.051 153.298 392.605 153.298ZM405.476 153.298C403.166 153.298 402.011 152.115 402.011 149.749C402.011 149.43 402.03 149.11 402.068 148.791C402.124 148.453 402.19 148.087 402.265 147.692L404.293 138.228H408.772L406.969 146.707C406.875 147.12 406.828 147.486 406.828 147.805C406.828 148.932 407.298 149.495 408.237 149.495C408.593 149.495 408.95 149.43 409.307 149.298C409.664 149.148 410.039 148.913 410.434 148.594C410.828 148.275 411.213 147.861 411.589 147.354L413.532 138.228H418.039L415.983 147.946C415.964 148.059 415.945 148.162 415.927 148.256C415.908 148.35 415.899 148.444 415.899 148.538C415.899 148.969 416.143 149.195 416.631 149.214L415.814 153.016C415.401 153.092 415.035 153.148 414.715 153.185C414.396 153.223 414.124 153.242 413.899 153.242C413.166 153.242 412.575 153.101 412.124 152.819C411.692 152.538 411.476 152.077 411.476 151.439C411.476 151.364 411.485 151.289 411.504 151.214C411.523 151.12 411.542 151.007 411.561 150.876C411.579 150.744 411.598 150.603 411.617 150.453C410.772 151.43 409.823 152.153 408.772 152.622C407.739 153.073 406.64 153.298 405.476 153.298ZM418.643 153.016L421.77 138.228H426.446L428.813 146.031L434.531 138.228H439.432L436.277 153.016H431.996L433.855 144.312L429.432 150.425H426.615L424.756 144.312L422.897 153.016H418.643ZM453.482 153.298C451.191 153.279 449.501 152.725 448.412 151.636C447.323 150.528 446.815 148.932 446.891 146.847C446.966 144.894 447.388 143.261 448.158 141.946C448.947 140.631 450.017 139.636 451.369 138.96C452.74 138.284 454.308 137.946 456.074 137.946C457.726 137.946 458.994 138.293 459.877 138.988C460.759 139.664 461.2 140.594 461.2 141.777C461.2 142.791 460.834 143.683 460.102 144.453C459.388 145.223 458.402 145.824 457.144 146.256C455.905 146.688 454.487 146.904 452.891 146.904C452.308 146.904 451.698 146.885 451.06 146.847C450.44 146.791 449.82 146.725 449.2 146.65L449.679 144.509C450.299 144.584 450.891 144.641 451.454 144.678C452.036 144.716 452.571 144.735 453.06 144.735C454.168 144.735 455.041 144.622 455.679 144.397C456.318 144.153 456.769 143.843 457.031 143.467C457.313 143.092 457.454 142.716 457.454 142.34C457.454 142.002 457.332 141.711 457.088 141.467C456.844 141.204 456.412 141.073 455.792 141.073C455.003 141.073 454.28 141.307 453.623 141.777C452.966 142.228 452.421 142.885 451.989 143.749C451.576 144.594 451.341 145.636 451.285 146.876C451.21 147.927 451.36 148.754 451.736 149.354C452.13 149.937 452.938 150.228 454.158 150.228C454.684 150.228 455.154 150.153 455.567 150.002C455.999 149.852 456.337 149.627 456.581 149.326C456.825 149.007 456.947 148.622 456.947 148.171C456.947 147.664 456.806 147.27 456.524 146.988C456.243 146.707 455.923 146.509 455.567 146.397C455.229 146.284 454.966 146.228 454.778 146.228L456.102 144.707C456.252 144.707 456.515 144.744 456.891 144.819C457.285 144.876 457.717 144.988 458.186 145.157C458.656 145.307 459.116 145.523 459.567 145.805C460.017 146.087 460.384 146.444 460.665 146.876C460.966 147.307 461.116 147.833 461.116 148.453C461.116 149.467 460.778 150.34 460.102 151.073C459.426 151.786 458.515 152.34 457.369 152.735C456.224 153.11 454.928 153.298 453.482 153.298ZM468.945 153.298C467.555 153.298 466.4 153.016 465.48 152.453C464.56 151.871 463.874 151.11 463.423 150.171C462.973 149.232 462.747 148.2 462.747 147.073C462.747 145.908 462.973 144.791 463.423 143.721C463.874 142.631 464.513 141.655 465.339 140.791C466.165 139.927 467.151 139.242 468.297 138.735C469.461 138.209 470.747 137.946 472.156 137.946C473.79 137.946 475.085 138.312 476.043 139.045C477.02 139.758 477.668 140.697 477.987 141.861L473.339 143.185C473.17 142.735 472.916 142.387 472.578 142.143C472.24 141.899 471.827 141.777 471.339 141.777C470.832 141.777 470.344 141.899 469.874 142.143C469.405 142.369 468.982 142.697 468.607 143.129C468.25 143.561 467.959 144.068 467.733 144.65C467.527 145.232 467.423 145.871 467.423 146.566C467.423 147.148 467.517 147.664 467.705 148.115C467.893 148.547 468.156 148.885 468.494 149.129C468.851 149.373 469.245 149.495 469.677 149.495C470.015 149.495 470.344 149.439 470.663 149.326C471.001 149.195 471.311 149.016 471.592 148.791C471.874 148.566 472.109 148.312 472.297 148.031L476.409 149.383C475.884 150.134 475.245 150.81 474.494 151.411C473.743 151.993 472.898 152.453 471.959 152.791C471.02 153.129 470.015 153.298 468.945 153.298ZM485.419 153.298C484.067 153.298 482.893 153.016 481.898 152.453C480.922 151.871 480.161 151.073 479.616 150.059C479.091 149.045 478.828 147.899 478.828 146.622C478.809 145.401 479.015 144.275 479.447 143.242C479.898 142.19 480.527 141.27 481.335 140.481C482.142 139.692 483.091 139.073 484.18 138.622C485.288 138.171 486.49 137.946 487.785 137.946C488.893 137.946 489.87 138.115 490.715 138.453C491.56 138.772 492.227 139.251 492.715 139.89C493.203 140.509 493.476 141.27 493.532 142.171C493.607 143.768 492.931 144.988 491.504 145.833C490.095 146.678 487.936 147.101 485.025 147.101C484.405 147.101 483.738 147.092 483.025 147.073C482.33 147.035 481.616 146.979 480.884 146.904L481.363 144.115C481.926 144.171 482.49 144.218 483.053 144.256C483.635 144.275 484.227 144.284 484.828 144.284C485.917 144.284 486.771 144.228 487.391 144.115C488.03 143.984 488.471 143.796 488.715 143.552C488.978 143.289 489.1 142.969 489.081 142.594C489.062 142.312 488.969 142.077 488.8 141.89C488.63 141.683 488.405 141.523 488.123 141.411C487.842 141.298 487.523 141.242 487.166 141.242C486.64 141.242 486.152 141.383 485.701 141.664C485.269 141.946 484.884 142.34 484.546 142.847C484.208 143.354 483.945 143.946 483.757 144.622C483.569 145.298 483.476 146.031 483.476 146.819C483.457 147.495 483.541 148.077 483.729 148.566C483.917 149.035 484.199 149.392 484.574 149.636C484.969 149.88 485.466 150.002 486.067 150.002C486.48 150.002 486.846 149.955 487.166 149.861C487.504 149.749 487.795 149.608 488.039 149.439C488.302 149.251 488.518 149.063 488.687 148.876C488.875 148.688 489.015 148.509 489.109 148.34L492.771 149.495C492.508 149.927 492.161 150.369 491.729 150.819C491.297 151.251 490.771 151.655 490.152 152.031C489.551 152.406 488.856 152.716 488.067 152.96C487.297 153.185 486.415 153.298 485.419 153.298ZM483.645 136.312L484.433 132.678H488.123L487.363 136.312H483.645ZM489.419 136.312L490.208 132.678H493.87L493.138 136.312H489.419ZM494.094 153.016L495.052 148.425H498.742L497.756 153.016H494.094Z" fill="black"/>
<defs>
<clipPath id="clip0_1214_2958">
<rect width="117.473" height="110.329" fill="white" transform="translate(1.5 0.255859)"/>
</clipPath>
</defs>
</svg>
