<svg width="189" height="47" viewBox="0 0 189 47" fill="none" xmlns="http://www.w3.org/2000/svg">
<path d="M147.048 21.8485H145.612L144.024 18.2727L142.436 21.8485H141L144.024 15.1515L147.048 21.8485Z" fill="#E60029"/>
<path d="M149.552 17.7879C149.674 17.1515 149.98 16.5758 150.469 16.0909C151.141 15.4242 151.935 15.0909 152.882 15.0909C153.828 15.0909 154.623 15.4242 155.294 16.0909C155.966 16.7576 156.302 17.5758 156.302 18.5152C156.302 19.4545 155.966 20.2727 155.294 20.9091C154.623 21.5758 153.828 21.9091 152.882 21.9091C151.935 21.9091 151.141 21.5758 150.469 20.9091C149.98 20.4242 149.674 19.8485 149.552 19.2121H148.85V21.8485H147.506V15.1515H148.85V17.7879H149.552ZM151.446 17.0606C151.049 17.4545 150.835 17.9394 150.835 18.5152C150.835 19.0606 151.049 19.5758 151.446 19.9697C151.843 20.3636 152.332 20.5758 152.882 20.5758C153.462 20.5758 153.92 20.3636 154.317 19.9697C154.714 19.5758 154.928 19.0909 154.928 18.5152C154.928 17.9394 154.714 17.4849 154.317 17.0606C153.92 16.6667 153.431 16.4545 152.882 16.4545C152.332 16.4545 151.843 16.6667 151.446 17.0606Z" fill="#E60029"/>
<path d="M158.257 17.1818H159.265C159.907 17.1818 160.456 17.4242 160.945 17.8788C161.403 18.3333 161.648 18.8788 161.648 19.5455C161.648 20.2121 161.403 20.7576 160.945 21.2121C160.487 21.6667 159.937 21.9091 159.265 21.9091H156.913V15.1515H160.976V16.4849H158.257V17.1818ZM158.257 20.5455H159.265C159.54 20.5455 159.784 20.4545 159.968 20.2424C160.181 20.0303 160.273 19.8182 160.273 19.5152C160.273 19.2121 160.181 19 159.968 18.7879C159.754 18.5758 159.54 18.4849 159.265 18.4849H158.257V20.5455Z" fill="#E60029"/>
<path d="M168.062 21.8485H166.626L165.038 18.2727L163.45 21.8485H162.014L165.038 15.1515L168.062 21.8485Z" fill="#E60029"/>
<path d="M174.048 15V21.8788H172.704V18.1515L168.642 22V15.1212H169.986V18.8485L174.048 15Z" fill="#E60029"/>
<path d="M176.247 15.1515V17.8485H178.508V15.1515H179.852V21.8788H178.508V19.1818H176.247V21.8788H174.904V15.1515H176.247Z" fill="#E60029"/>
<path d="M186.235 16.0909C186.907 16.7576 187.243 17.5758 187.243 18.5152C187.243 19.4545 186.907 20.2727 186.235 20.9091C185.563 21.5758 184.769 21.9091 183.822 21.9091C182.875 21.9091 182.081 21.5758 181.409 20.9091C180.737 20.2424 180.401 19.4545 180.401 18.5152C180.401 17.5758 180.737 16.7879 181.409 16.0909C182.081 15.4242 182.875 15.0909 183.822 15.0909C184.769 15.0909 185.594 15.4242 186.235 16.0909ZM182.387 17.0606C181.99 17.4545 181.776 17.9394 181.776 18.5152C181.776 19.0606 181.99 19.5758 182.387 19.9697C182.784 20.3636 183.273 20.5758 183.822 20.5758C184.403 20.5758 184.861 20.3636 185.258 19.9697C185.655 19.5758 185.869 19.0909 185.869 18.5152C185.869 17.9394 185.655 17.4849 185.258 17.0606C184.861 16.6667 184.372 16.4545 183.822 16.4545C183.273 16.4545 182.784 16.6667 182.387 17.0606Z" fill="#E60029"/>
<path d="M73.187 35.5568C72.9693 34.6932 72.5341 34.0455 71.8812 33.3977C70.7931 32.3182 69.4874 31.6705 67.7464 31.6705C66.223 31.6705 64.9173 32.3182 63.6115 33.3977L61 30.8068C62.9586 28.8636 65.1349 28 67.7464 28C70.3579 28 72.5341 28.8636 74.4927 30.8068C76.4514 32.75 77.3218 34.9091 77.3218 37.5C77.3218 40.0909 76.4514 42.4659 74.4927 44.1932C72.5341 46.1364 70.3579 47 67.7464 47C65.1349 47 62.741 46.1364 61 44.1932L63.6115 41.6023C64.6996 42.6818 66.0054 43.3295 67.7464 43.3295C69.2697 43.3295 70.5755 42.6818 71.8812 41.6023C72.5341 40.9545 72.9693 40.3068 73.187 39.4432H67.964V35.5568H73.187Z" fill="#3622F5"/>
<path d="M82.7624 28V36.2045L87.5502 28H91.9027L86.2444 37.5L92.7732 46.7841H88.203L82.7624 39.0114V46.7841H79.0628V28H82.7624Z" fill="#3622F5"/>
<path d="M103.437 47C100.825 47 98.649 46.1364 96.6904 44.1932C94.7318 42.25 93.8613 40.0909 93.8613 37.5C93.8613 34.9091 94.7318 32.5341 96.6904 30.8068C98.649 28.8636 100.825 28 103.437 28C106.048 28 108.224 28.8636 110.183 30.8068L107.572 33.3977C106.483 32.3182 105.178 31.6705 103.437 31.6705C101.913 31.6705 100.39 32.3182 99.3019 33.3977C98.2137 34.4773 97.5609 35.7727 97.5609 37.5C97.5609 39.0114 98.2137 40.5227 99.3019 41.6023C100.39 42.6818 101.696 43.3295 103.437 43.3295C104.96 43.3295 106.483 42.6818 107.572 41.6023L110.183 44.1932C108.224 45.9205 106.048 47 103.437 47Z" fill="#3622F5"/>
<path d="M115.624 31.6705V46.7841H111.924V28H125.634V46.7841H121.935V31.6705H115.624Z" fill="#3622F5"/>
<path d="M127.811 28H134.339C136.08 28 137.821 28.6477 138.909 29.9432C140.215 31.2386 140.868 32.75 140.868 34.6932C140.868 36.6364 140.215 38.1477 138.909 39.2273C137.604 40.5227 136.08 41.1705 134.339 41.1705H131.51V46.7841H127.811V28ZM136.298 32.5341C135.645 31.8864 134.992 31.6705 134.339 31.6705H131.51V37.2841H134.339C135.21 37.2841 135.863 37.0682 136.298 36.4205C136.733 35.7727 137.168 35.125 137.168 34.4773C137.168 33.8295 136.951 33.1818 136.298 32.5341Z" fill="#3622F5"/>
<path d="M153.926 28V31.6705H146.309V35.5568H151.967V39.2273H146.309V43.1136H153.926V46.7841H142.609V28H153.926Z" fill="#3622F5"/>
<path d="M164.372 47C161.76 47 159.584 46.1364 157.625 44.1932C155.667 42.25 154.796 40.0909 154.796 37.5C154.796 34.9091 155.667 32.5341 157.625 30.8068C159.584 28.8636 161.76 28 164.372 28C166.983 28 169.159 28.8636 171.118 30.8068L168.506 33.3977C167.418 32.3182 166.113 31.6705 164.372 31.6705C162.848 31.6705 161.325 32.3182 160.237 33.3977C159.149 34.4773 158.496 35.7727 158.496 37.5C158.496 39.0114 159.149 40.5227 160.237 41.6023C161.325 42.6818 162.631 43.3295 164.372 43.3295C165.895 43.3295 167.418 42.6818 168.506 41.6023L171.118 44.1932C169.377 45.9205 166.983 47 164.372 47Z" fill="#3622F5"/>
<path d="M181.564 47C178.952 47 176.776 46.1364 174.817 44.1932C172.859 42.25 171.988 40.0909 171.988 37.5C171.988 34.9091 172.859 32.5341 174.817 30.8068C176.776 28.8636 178.952 28 181.564 28C184.175 28 186.352 28.8636 188.31 30.8068L185.699 33.3977C184.611 32.3182 183.305 31.6705 181.564 31.6705C179.823 31.6705 178.735 32.3182 177.429 33.3977C176.341 34.4773 175.688 35.7727 175.688 37.5C175.688 39.0114 176.341 40.5227 177.429 41.6023C178.517 42.6818 179.823 43.3295 181.564 43.3295C183.305 43.3295 184.611 42.6818 185.699 41.6023L188.31 44.1932C186.569 45.9205 184.175 47 181.564 47Z" fill="#3622F5"/>
<g clip-path="url(#clip0_841_1811)">
<rect x="18.3696" width="6.13043" height="47" fill="#3622F5"/>
<rect y="47" width="6.13043" height="22.4783" transform="rotate(-90 0 47)" fill="#3622F5"/>
<rect x="26.5435" y="6.13043" width="6.13043" height="23.5" transform="rotate(-90 26.5435 6.13043)" fill="#E60029"/>
<rect x="26.5435" y="26.5652" width="6.13043" height="23.5" transform="rotate(-90 26.5435 26.5652)" fill="#E60029"/>
<rect x="26.5435" y="47" width="6.13043" height="23.5" transform="rotate(-90 26.5435 47)" fill="#E60029"/>
<rect x="26.5435" width="6.13043" height="47" fill="#E60029"/>
</g>
<defs>
<clipPath id="clip0_841_1811">
<rect width="50.0435" height="47" fill="white"/>
</clipPath>
</defs>
</svg>
