<svg width="189" height="67" viewBox="0 0 189 67" fill="none" xmlns="http://www.w3.org/2000/svg">
<g clip-path="url(#clip0_974_1586)">
<rect x="19.3696" width="6.13043" height="47" fill="#3622F5"/>
<rect x="1" y="47" width="6.13043" height="22.4783" transform="rotate(-90 1 47)" fill="#3622F5"/>
<rect x="27.5435" y="6.13043" width="6.13043" height="23.5" transform="rotate(-90 27.5435 6.13043)" fill="#E60029"/>
<rect x="27.5435" y="26.5652" width="6.13043" height="23.5" transform="rotate(-90 27.5435 26.5652)" fill="#E60029"/>
<rect x="27.5435" y="47" width="6.13043" height="23.5" transform="rotate(-90 27.5435 47)" fill="#E60029"/>
<rect x="27.5435" width="6.13043" height="47" fill="#E60029"/>
</g>
<path d="M98.3555 24V16.932H95.8595L95.8115 18.372C95.7715 19.5 95.6795 20.432 95.5355 21.168C95.3915 21.904 95.1835 22.484 94.9115 22.908C94.6395 23.324 94.2955 23.62 93.8795 23.796C93.4715 23.964 92.9795 24.048 92.4035 24.048V22.62C92.6995 22.62 92.9555 22.556 93.1715 22.428C93.3875 22.3 93.5675 22.068 93.7115 21.732C93.8635 21.396 93.9835 20.92 94.0715 20.304C94.1595 19.688 94.2195 18.892 94.2515 17.916L94.3355 15.48H99.9995V24H98.3555ZM108.607 24.06C107.903 24.06 107.275 23.912 106.723 23.616C106.179 23.32 105.735 22.9 105.391 22.356C105.047 21.812 104.831 21.168 104.743 20.424H103.447V24H101.791V15.48H103.447V18.984H104.755C104.851 18.232 105.075 17.592 105.427 17.064C105.787 16.536 106.243 16.132 106.795 15.852C107.347 15.564 107.963 15.42 108.643 15.42C109.435 15.42 110.123 15.604 110.707 15.972C111.299 16.332 111.759 16.84 112.087 17.496C112.423 18.144 112.591 18.9 112.591 19.764C112.591 20.692 112.419 21.476 112.075 22.116C111.731 22.748 111.259 23.232 110.659 23.568C110.067 23.896 109.383 24.06 108.607 24.06ZM108.631 22.596C109.119 22.596 109.531 22.476 109.867 22.236C110.211 21.988 110.471 21.648 110.647 21.216C110.823 20.784 110.911 20.292 110.911 19.74C110.911 19.148 110.819 18.644 110.635 18.228C110.451 17.804 110.187 17.476 109.843 17.244C109.499 17.012 109.091 16.896 108.619 16.896C108.139 16.896 107.731 17.016 107.395 17.256C107.059 17.496 106.803 17.832 106.627 18.264C106.451 18.688 106.363 19.18 106.363 19.74C106.363 20.324 106.451 20.832 106.627 21.264C106.811 21.688 107.071 22.016 107.407 22.248C107.751 22.48 108.159 22.596 108.631 22.596ZM113.885 24V15.48H120.029V16.908H115.529V18.96H117.845C118.797 18.96 119.513 19.184 119.993 19.632C120.473 20.08 120.713 20.68 120.713 21.432C120.713 21.936 120.609 22.38 120.401 22.764C120.193 23.148 119.885 23.452 119.477 23.676C119.069 23.892 118.553 24 117.929 24H113.885ZM115.529 22.572H117.701C118.021 22.572 118.277 22.516 118.469 22.404C118.661 22.284 118.801 22.136 118.889 21.96C118.977 21.776 119.021 21.584 119.021 21.384C119.021 21.184 118.981 21 118.901 20.832C118.829 20.656 118.697 20.516 118.505 20.412C118.313 20.3 118.037 20.244 117.677 20.244H115.529V22.572ZM127.301 24V16.932H124.805L124.757 18.372C124.717 19.5 124.625 20.432 124.481 21.168C124.337 21.904 124.129 22.484 123.857 22.908C123.585 23.324 123.241 23.62 122.825 23.796C122.417 23.964 121.925 24.048 121.349 24.048V22.62C121.645 22.62 121.901 22.556 122.117 22.428C122.333 22.3 122.513 22.068 122.657 21.732C122.809 21.396 122.929 20.92 123.017 20.304C123.105 19.688 123.165 18.892 123.197 17.916L123.281 15.48H128.945V24H127.301ZM130.796 24V15.48H132.44V21.672L136.568 15.48H138.104V24H136.46V17.88L132.38 24H130.796ZM147.099 15.48V24H145.455V20.364H141.591V24H139.935V15.48H141.591V18.924H145.455V15.48H147.099ZM152.513 24.06C151.889 24.06 151.321 23.94 150.809 23.7C150.305 23.46 149.869 23.136 149.501 22.728C149.141 22.312 148.861 21.848 148.661 21.336C148.461 20.816 148.361 20.284 148.361 19.74C148.361 19.172 148.465 18.632 148.673 18.12C148.889 17.6 149.181 17.14 149.549 16.74C149.925 16.332 150.365 16.012 150.869 15.78C151.381 15.54 151.941 15.42 152.549 15.42C153.165 15.42 153.725 15.544 154.229 15.792C154.741 16.04 155.177 16.372 155.537 16.788C155.897 17.204 156.177 17.668 156.377 18.18C156.577 18.692 156.677 19.22 156.677 19.764C156.677 20.324 156.573 20.864 156.365 21.384C156.157 21.896 155.865 22.356 155.489 22.764C155.121 23.164 154.681 23.48 154.169 23.712C153.665 23.944 153.113 24.06 152.513 24.06ZM150.041 19.74C150.041 20.108 150.097 20.464 150.209 20.808C150.321 21.152 150.481 21.46 150.689 21.732C150.905 21.996 151.165 22.208 151.469 22.368C151.781 22.52 152.133 22.596 152.525 22.596C152.925 22.596 153.281 22.516 153.593 22.356C153.905 22.188 154.165 21.968 154.373 21.696C154.581 21.416 154.737 21.108 154.841 20.772C154.953 20.428 155.009 20.084 155.009 19.74C155.009 19.372 154.949 19.02 154.829 18.684C154.717 18.34 154.553 18.036 154.337 17.772C154.129 17.5 153.869 17.288 153.557 17.136C153.253 16.976 152.909 16.896 152.525 16.896C152.117 16.896 151.757 16.98 151.445 17.148C151.141 17.308 150.885 17.524 150.677 17.796C150.469 18.068 150.309 18.372 150.197 18.708C150.093 19.044 150.041 19.388 150.041 19.74Z" fill="#E60029"/>
<path d="M69.8643 47.1418C68.8247 47.1418 67.8638 46.9842 66.9817 46.6692C66.1154 46.3542 65.3435 45.9052 64.6662 45.3224C64.0046 44.7238 63.4533 44.0308 63.0122 43.2432L65.2333 41.9909C65.5483 42.5895 65.9421 43.0935 66.4147 43.5031C66.8872 43.9126 67.4149 44.2277 67.9977 44.4482C68.5963 44.653 69.2185 44.7553 69.8643 44.7553C70.6834 44.7553 71.4316 44.5978 72.109 44.2828C72.7863 43.952 73.3691 43.5031 73.8574 42.936C74.3458 42.3689 74.708 41.7231 74.9443 40.9985C75.1964 40.2582 75.3145 39.4863 75.2987 38.683L76.4329 39.4627H68.3758V37.4071H76.362L75.2987 38.1159C75.283 37.4071 75.1491 36.7219 74.8971 36.0603C74.645 35.3829 74.2906 34.7844 73.8338 34.2646C73.377 33.729 72.8178 33.3037 72.1562 32.9886C71.4947 32.6736 70.7307 32.5161 69.8643 32.5161C69.25 32.5161 68.6514 32.6185 68.0686 32.8233C67.5015 33.0123 66.9896 33.3116 66.5328 33.7211C66.076 34.1149 65.6979 34.6111 65.3987 35.2097L63.2485 33.792C63.8943 32.7209 64.7528 31.8466 65.824 31.1693C66.8951 30.4762 68.2419 30.1297 69.8643 30.1297C71.1717 30.1297 72.3295 30.3738 73.3376 30.8621C74.3615 31.3347 75.22 31.9726 75.9131 32.776C76.6219 33.5636 77.1575 34.4615 77.5198 35.4696C77.8821 36.4777 78.0632 37.5173 78.0632 38.5885C78.0632 39.7069 77.8663 40.778 77.4725 41.8019C77.0945 42.8257 76.5431 43.7393 75.8186 44.5427C75.094 45.346 74.2276 45.984 73.2195 46.4566C72.2271 46.9134 71.1087 47.1418 69.8643 47.1418ZM80.8245 47V30.2242H83.4709V37.2417H85.432L90.701 30.2242H93.7254L87.5585 38.3522L94.1743 47H90.9373L85.432 39.6753H83.4709V47H80.8245ZM94.5743 38.494C94.5743 37.4701 94.7555 36.4698 95.1178 35.4932C95.4801 34.5008 96.0077 33.603 96.7008 32.7996C97.4097 31.9805 98.2681 31.3347 99.2763 30.8621C100.284 30.3738 101.426 30.1297 102.702 30.1297C104.215 30.1297 105.522 30.4762 106.625 31.1693C107.727 31.8466 108.546 32.7209 109.082 33.792L107.003 35.186C106.688 34.5087 106.286 33.9731 105.798 33.5793C105.325 33.1855 104.805 32.9099 104.238 32.7524C103.687 32.5949 103.143 32.5161 102.608 32.5161C101.726 32.5161 100.954 32.6972 100.292 33.0595C99.6307 33.4061 99.0715 33.8708 98.6147 34.4536C98.1736 35.0364 97.835 35.6901 97.5987 36.4147C97.3782 37.1393 97.2679 37.8639 97.2679 38.5885C97.2679 39.3918 97.4018 40.1715 97.6696 40.9276C97.9374 41.668 98.3075 42.3296 98.7801 42.9124C99.2684 43.4794 99.8433 43.9284 100.505 44.2592C101.167 44.59 101.891 44.7553 102.679 44.7553C103.214 44.7553 103.773 44.6608 104.356 44.4718C104.939 44.2828 105.475 43.9914 105.963 43.5976C106.467 43.188 106.861 42.6525 107.144 41.9909L109.342 43.2432C108.995 44.078 108.452 44.7869 107.711 45.3697C106.987 45.9525 106.168 46.3936 105.254 46.6928C104.356 46.9921 103.466 47.1418 102.584 47.1418C101.403 47.1418 100.324 46.8976 99.3472 46.4093C98.3705 45.9052 97.5278 45.2437 96.819 44.4246C96.1101 43.5897 95.5588 42.6603 95.165 41.6365C94.7712 40.5968 94.5743 39.5493 94.5743 38.494ZM111.813 47V30.2242H125.068V47H122.398V32.5633H114.459V47H111.813ZM128.864 47V30.2242H135.905C136.662 30.2242 137.355 30.3817 137.985 30.6967C138.615 31.0118 139.166 31.4292 139.639 31.949C140.111 32.4688 140.473 33.0517 140.726 33.6975C140.978 34.3433 141.104 35.0049 141.104 35.6822C141.104 36.6116 140.891 37.5016 140.466 38.3522C140.056 39.187 139.465 39.8644 138.694 40.3842C137.937 40.904 137.055 41.1639 136.047 41.1639H131.511V47H128.864ZM131.511 38.8247H135.882C136.386 38.8247 136.827 38.6909 137.205 38.4231C137.583 38.1395 137.874 37.7615 138.079 37.2889C138.3 36.8164 138.41 36.2808 138.41 35.6822C138.41 35.0679 138.284 34.5245 138.032 34.0519C137.78 33.5793 137.449 33.2171 137.04 32.965C136.646 32.6972 136.213 32.5633 135.74 32.5633H131.511V38.8247ZM155.092 44.6608V47H143.586V30.2242H154.88V32.5633H146.232V37.3362H153.722V39.5336H146.232V44.6608H155.092ZM156.459 38.494C156.459 37.4701 156.64 36.4698 157.003 35.4932C157.365 34.5008 157.893 33.603 158.586 32.7996C159.294 31.9805 160.153 31.3347 161.161 30.8621C162.169 30.3738 163.311 30.1297 164.587 30.1297C166.099 30.1297 167.407 30.4762 168.509 31.1693C169.612 31.8466 170.431 32.7209 170.967 33.792L168.887 35.186C168.572 34.5087 168.171 33.9731 167.682 33.5793C167.21 33.1855 166.69 32.9099 166.123 32.7524C165.572 32.5949 165.028 32.5161 164.493 32.5161C163.611 32.5161 162.839 32.6972 162.177 33.0595C161.515 33.4061 160.956 33.8708 160.499 34.4536C160.058 35.0364 159.72 35.6901 159.483 36.4147C159.263 37.1393 159.153 37.8639 159.153 38.5885C159.153 39.3918 159.287 40.1715 159.554 40.9276C159.822 41.668 160.192 42.3296 160.665 42.9124C161.153 43.4794 161.728 43.9284 162.39 44.2592C163.051 44.59 163.776 44.7553 164.563 44.7553C165.099 44.7553 165.658 44.6608 166.241 44.4718C166.824 44.2828 167.359 43.9914 167.848 43.5976C168.352 43.188 168.746 42.6525 169.029 41.9909L171.227 43.2432C170.88 44.078 170.337 44.7869 169.596 45.3697C168.872 45.9525 168.053 46.3936 167.139 46.6928C166.241 46.9921 165.351 47.1418 164.469 47.1418C163.288 47.1418 162.209 46.8976 161.232 46.4093C160.255 45.9052 159.413 45.2437 158.704 44.4246C157.995 43.5897 157.444 42.6603 157.05 41.6365C156.656 40.5968 156.459 39.5493 156.459 38.494ZM172.403 38.494C172.403 37.4701 172.584 36.4698 172.947 35.4932C173.309 34.5008 173.837 33.603 174.53 32.7996C175.239 31.9805 176.097 31.3347 177.105 30.8621C178.113 30.3738 179.255 30.1297 180.531 30.1297C182.044 30.1297 183.351 30.4762 184.454 31.1693C185.556 31.8466 186.375 32.7209 186.911 33.792L184.832 35.186C184.517 34.5087 184.115 33.9731 183.627 33.5793C183.154 33.1855 182.634 32.9099 182.067 32.7524C181.516 32.5949 180.972 32.5161 180.437 32.5161C179.555 32.5161 178.783 32.6972 178.121 33.0595C177.46 33.4061 176.901 33.8708 176.444 34.4536C176.003 35.0364 175.664 35.6901 175.428 36.4147C175.207 37.1393 175.097 37.8639 175.097 38.5885C175.097 39.3918 175.231 40.1715 175.499 40.9276C175.766 41.668 176.137 42.3296 176.609 42.9124C177.097 43.4794 177.672 43.9284 178.334 44.2592C178.996 44.59 179.72 44.7553 180.508 44.7553C181.043 44.7553 181.602 44.6608 182.185 44.4718C182.768 44.2828 183.304 43.9914 183.792 43.5976C184.296 43.188 184.69 42.6525 184.973 41.9909L187.171 43.2432C186.824 44.078 186.281 44.7869 185.54 45.3697C184.816 45.9525 183.997 46.3936 183.083 46.6928C182.185 46.9921 181.295 47.1418 180.413 47.1418C179.232 47.1418 178.153 46.8976 177.176 46.4093C176.2 45.9052 175.357 45.2437 174.648 44.4246C173.939 43.5897 173.388 42.6603 172.994 41.6365C172.6 40.5968 172.403 39.5493 172.403 38.494Z" fill="black"/>
<path d="M0.811 64.063L1.1155 62.572C1.3465 62.572 1.5495 62.516 1.7245 62.404C1.9065 62.292 2.0745 62.0995 2.2285 61.8265C2.3895 61.5535 2.547 61.1755 2.701 60.6925C2.862 60.2025 3.037 59.583 3.226 58.834L3.793 56.545H8.9695L7.3945 64H5.6725L6.9325 58.057H5.074L4.759 59.338C4.521 60.276 4.283 61.053 4.045 61.669C3.814 62.285 3.5515 62.768 3.2575 63.118C2.9705 63.461 2.6275 63.706 2.2285 63.853C1.8365 63.993 1.364 64.063 0.811 64.063ZM8.78271 64L9.94821 58.4875H11.6282L11.1977 60.514H12.5417L12.2162 61.942H10.8932L10.4627 64H8.78271ZM14.3687 64.105C13.7457 64.105 13.2312 63.972 12.8252 63.706C12.4262 63.44 12.1392 63.09 11.9642 62.656C11.7962 62.222 11.7472 61.753 11.8172 61.249C11.8732 60.871 11.9887 60.5105 12.1637 60.1675C12.3457 59.8175 12.5802 59.5095 12.8672 59.2435C13.1612 58.9775 13.5007 58.7675 13.8857 58.6135C14.2777 58.4595 14.7047 58.3825 15.1667 58.3825C15.7897 58.3825 16.3007 58.5155 16.6997 58.7815C17.1057 59.0475 17.3927 59.3975 17.5607 59.8315C17.7357 60.2655 17.7882 60.738 17.7182 61.249C17.6692 61.627 17.5537 61.9875 17.3717 62.3305C17.1967 62.6735 16.9622 62.978 16.6682 63.244C16.3812 63.51 16.0452 63.72 15.6602 63.874C15.2752 64.028 14.8447 64.105 14.3687 64.105ZM14.5682 62.7715C14.7362 62.7715 14.9007 62.7365 15.0617 62.6665C15.2297 62.5895 15.3802 62.4845 15.5132 62.3515C15.6462 62.2115 15.7582 62.047 15.8492 61.858C15.9402 61.669 15.9997 61.466 16.0277 61.249C16.0697 60.948 16.0487 60.682 15.9647 60.451C15.8877 60.22 15.7617 60.0415 15.5867 59.9155C15.4117 59.7895 15.2087 59.7265 14.9777 59.7265C14.8027 59.7265 14.6347 59.765 14.4737 59.842C14.3127 59.912 14.1622 60.0135 14.0222 60.1465C13.8892 60.2795 13.7772 60.4405 13.6862 60.6295C13.6022 60.8115 13.5427 61.018 13.5077 61.249C13.4727 61.55 13.4937 61.816 13.5707 62.047C13.6547 62.271 13.7842 62.4495 13.9592 62.5825C14.1342 62.7085 14.3372 62.7715 14.5682 62.7715ZM21.1602 64.105C20.1802 64.105 19.4732 63.8145 19.0392 63.2335C18.6052 62.6455 18.4827 61.8125 18.6717 60.7345C18.8397 59.8175 19.0777 59.072 19.3857 58.498C19.7007 57.924 20.0927 57.4865 20.5617 57.1855C21.0377 56.8845 21.5977 56.6815 22.2417 56.5765C22.4657 56.5275 22.6792 56.489 22.8822 56.461C23.0922 56.433 23.2777 56.391 23.4387 56.335C23.5997 56.272 23.7152 56.1705 23.7852 56.0305L24.8877 56.482C24.8107 56.825 24.6882 57.0875 24.5202 57.2695C24.3522 57.4515 24.1072 57.588 23.7852 57.679C23.4702 57.77 23.0502 57.8505 22.5252 57.9205C22.0772 57.9835 21.7132 58.0885 21.4332 58.2355C21.1532 58.3755 20.9257 58.5715 20.7507 58.8235C20.5827 59.0755 20.4322 59.3975 20.2992 59.7895C20.5302 59.5235 20.8172 59.3135 21.1602 59.1595C21.5032 58.9985 21.8917 58.918 22.3257 58.918C22.8017 58.918 23.2042 59.023 23.5332 59.233C23.8622 59.443 24.1037 59.7335 24.2577 60.1045C24.4117 60.4685 24.4537 60.892 24.3837 61.375C24.3137 61.893 24.1387 62.3585 23.8587 62.7715C23.5857 63.1845 23.2217 63.51 22.7667 63.748C22.3117 63.986 21.7762 64.105 21.1602 64.105ZM21.2862 62.7715C21.6432 62.7715 21.9442 62.656 22.1892 62.425C22.4412 62.187 22.5952 61.879 22.6512 61.501C22.7002 61.137 22.6337 60.8395 22.4517 60.6085C22.2767 60.3705 22.0107 60.2515 21.6537 60.2515C21.4297 60.2515 21.2197 60.3075 21.0237 60.4195C20.8277 60.5245 20.6667 60.6715 20.5407 60.8605C20.4147 61.0425 20.3342 61.256 20.2992 61.501C20.2572 61.746 20.2712 61.9665 20.3412 62.1625C20.4112 62.3515 20.5267 62.502 20.6877 62.614C20.8487 62.719 21.0482 62.7715 21.2862 62.7715ZM24.5278 64C24.8078 63.083 25.2243 62.1625 25.7773 61.2385C26.3373 60.3075 27.0093 59.3905 27.7933 58.4875H29.5258L30.2188 64H28.4758L28.2448 59.9155C27.9928 60.3005 27.7653 60.6575 27.5623 60.9865C27.3663 61.3155 27.1878 61.641 27.0268 61.963C26.8728 62.278 26.7258 62.6035 26.5858 62.9395C26.4458 63.2685 26.3058 63.622 26.1658 64H24.5278ZM32.4009 64.105C31.5399 64.105 31.1094 63.664 31.1094 62.782C31.1094 62.663 31.1164 62.544 31.1304 62.425C31.1514 62.299 31.1759 62.1625 31.2039 62.0155L31.9599 58.4875H33.6294L32.9574 61.648C32.9224 61.802 32.9049 61.9385 32.9049 62.0575C32.9049 62.4775 33.0799 62.6875 33.4299 62.6875C33.5629 62.6875 33.6959 62.663 33.8289 62.614C33.9619 62.558 34.1019 62.4705 34.2489 62.3515C34.3959 62.2325 34.5394 62.0785 34.6794 61.8895L35.4039 58.4875H37.0839L36.3174 62.11C36.3104 62.152 36.3034 62.1905 36.2964 62.2255C36.2894 62.2605 36.2859 62.2955 36.2859 62.3305C36.2859 62.4915 36.3769 62.5755 36.5589 62.5825L36.2544 64C36.1004 64.028 35.9639 64.049 35.8449 64.063C35.7259 64.077 35.6244 64.084 35.5404 64.084C35.2674 64.084 35.0469 64.0315 34.8789 63.9265C34.7179 63.8215 34.6374 63.65 34.6374 63.412C34.6374 63.384 34.6409 63.356 34.6479 63.328C34.6549 63.293 34.6619 63.251 34.6689 63.202C34.6759 63.153 34.6829 63.1005 34.6899 63.0445C34.3749 63.4085 34.0214 63.678 33.6294 63.853C33.2444 64.021 32.8349 64.105 32.4009 64.105ZM37.3091 64L38.4746 58.4875H40.1546L39.7136 60.5455H41.5931L42.0341 58.4875H43.7141L42.5381 64H40.8581L41.3201 61.816H39.4511L38.9891 64H37.3091ZM46.6055 64.105C45.9825 64.105 45.468 63.972 45.062 63.706C44.663 63.44 44.3795 63.09 44.2115 62.656C44.0435 62.222 43.9945 61.753 44.0645 61.249C44.1205 60.864 44.236 60.5 44.411 60.157C44.586 59.814 44.817 59.5095 45.104 59.2435C45.398 58.9775 45.7375 58.7675 46.1225 58.6135C46.5145 58.4595 46.9415 58.3825 47.4035 58.3825C48.0335 58.3825 48.548 58.5155 48.947 58.7815C49.353 59.0475 49.64 59.3975 49.808 59.8315C49.976 60.2655 50.025 60.738 49.955 61.249C49.906 61.627 49.7905 61.9875 49.6085 62.3305C49.4335 62.6735 49.199 62.978 48.905 63.244C48.618 63.51 48.282 63.72 47.897 63.874C47.512 64.028 47.0815 64.105 46.6055 64.105ZM46.805 62.7715C46.973 62.7715 47.1375 62.7365 47.2985 62.6665C47.4665 62.5895 47.617 62.4845 47.75 62.3515C47.883 62.2115 47.995 62.047 48.086 61.858C48.177 61.669 48.2365 61.466 48.2645 61.249C48.3065 60.948 48.2855 60.682 48.2015 60.451C48.1245 60.22 47.9985 60.0415 47.8235 59.9155C47.6485 59.7895 47.4455 59.7265 47.2145 59.7265C47.0395 59.7265 46.8715 59.765 46.7105 59.842C46.5495 59.912 46.4025 60.0135 46.2695 60.1465C46.1365 60.2795 46.0245 60.4405 45.9335 60.6295C45.8425 60.8115 45.783 61.018 45.755 61.249C45.713 61.55 45.7305 61.816 45.8075 62.047C45.8915 62.271 46.021 62.4495 46.196 62.5825C46.371 62.7085 46.574 62.7715 46.805 62.7715ZM55.6714 64.063C55.1674 64.063 54.7299 63.993 54.3589 63.853C53.9879 63.706 53.6764 63.503 53.4244 63.244C53.1724 62.978 52.9694 62.677 52.8154 62.341L54.3589 61.501C54.4359 61.711 54.5444 61.893 54.6844 62.047C54.8244 62.201 54.9959 62.32 55.1989 62.404C55.4019 62.488 55.6364 62.53 55.9024 62.53C56.2314 62.53 56.5254 62.4705 56.7844 62.3515C57.0504 62.2325 57.2779 62.068 57.4669 61.858C57.6629 61.648 57.8204 61.4065 57.9394 61.1335C58.0654 60.8605 58.1494 60.57 58.1914 60.262C58.2544 59.828 58.2369 59.443 58.1389 59.107C58.0409 58.771 57.8589 58.5085 57.5929 58.3195C57.3339 58.1305 56.9909 58.036 56.5639 58.036C56.1719 58.036 55.8184 58.1305 55.5034 58.3195C55.1954 58.5015 54.9434 58.7535 54.7474 59.0755L53.5189 58.12C53.9039 57.644 54.3589 57.2555 54.8839 56.9545C55.4089 56.6535 56.0529 56.503 56.8159 56.503C57.4039 56.503 57.9114 56.608 58.3384 56.818C58.7654 57.028 59.1084 57.3115 59.3674 57.6685C59.6264 58.0185 59.8049 58.421 59.9029 58.876C60.0009 59.324 60.0114 59.7965 59.9344 60.2935C59.8644 60.7975 59.7104 61.277 59.4724 61.732C59.2344 62.187 58.9264 62.5895 58.5484 62.9395C58.1774 63.2895 57.7469 63.566 57.2569 63.769C56.7739 63.965 56.2454 64.063 55.6714 64.063ZM55.4614 60.8815L55.7449 59.506H58.8109L58.5379 60.8815H55.4614ZM60.1138 64L61.2793 58.4875H62.9488L62.5078 60.556H62.9488C63.2568 60.339 63.5473 60.052 63.8203 59.695C64.0933 59.331 64.3278 58.9285 64.5238 58.4875H66.2353C65.9483 59.0825 65.6193 59.6075 65.2483 60.0625C64.8773 60.5105 64.5098 60.885 64.1458 61.186L65.4583 64H63.6628L62.6968 61.8265H62.2453L61.7833 64H60.1138ZM68.302 64.105C67.784 64.105 67.3535 64 67.0105 63.79C66.6675 63.573 66.412 63.2895 66.244 62.9395C66.076 62.5895 65.992 62.2045 65.992 61.7845C65.992 61.3505 66.076 60.934 66.244 60.535C66.412 60.129 66.65 59.765 66.958 59.443C67.266 59.121 67.6335 58.8655 68.0605 58.6765C68.4945 58.4805 68.974 58.3825 69.499 58.3825C70.108 58.3825 70.591 58.519 70.948 58.792C71.312 59.058 71.5535 59.408 71.6725 59.842L69.94 60.3355C69.877 60.1675 69.7825 60.038 69.6565 59.947C69.5305 59.856 69.3765 59.8105 69.1945 59.8105C69.0055 59.8105 68.8235 59.856 68.6485 59.947C68.4735 60.031 68.316 60.1535 68.176 60.3145C68.043 60.4755 67.9345 60.6645 67.8505 60.8815C67.7735 61.0985 67.735 61.3365 67.735 61.5955C67.735 61.8125 67.77 62.005 67.84 62.173C67.91 62.334 68.008 62.46 68.134 62.551C68.267 62.642 68.414 62.6875 68.575 62.6875C68.701 62.6875 68.8235 62.6665 68.9425 62.6245C69.0685 62.5755 69.184 62.509 69.289 62.425C69.394 62.341 69.4815 62.2465 69.5515 62.1415L71.0845 62.6455C70.8885 62.9255 70.6505 63.1775 70.3705 63.4015C70.0905 63.6185 69.7755 63.79 69.4255 63.916C69.0755 64.042 68.701 64.105 68.302 64.105ZM71.6289 64L72.7944 58.4875H77.8764L76.7004 64H75.0204L75.9234 59.779H74.2014L73.3089 64H71.6289ZM78.9238 58.4875H80.3938L80.1943 59.38C80.4533 59.065 80.7438 58.82 81.0658 58.645C81.3948 58.47 81.7553 58.3825 82.1473 58.3825C82.5463 58.3825 82.8858 58.484 83.1658 58.687C83.4528 58.883 83.6733 59.149 83.8273 59.485C83.9813 59.821 84.0583 60.2025 84.0583 60.6295C84.0583 61.0915 83.9778 61.5325 83.8168 61.9525C83.6558 62.3655 83.4388 62.7365 83.1658 63.0655C82.8928 63.3875 82.5778 63.643 82.2208 63.832C81.8638 64.014 81.4928 64.105 81.1078 64.105C80.7228 64.105 80.4008 64.0175 80.1418 63.8425C79.8898 63.6605 79.7183 63.4155 79.6273 63.1075L78.9553 66.2365H77.2753L78.9238 58.4875ZM80.8348 62.6875C81.0238 62.6875 81.2058 62.6385 81.3808 62.5405C81.5558 62.4355 81.7133 62.299 81.8533 62.131C81.9933 61.963 82.1018 61.774 82.1788 61.564C82.2628 61.347 82.3048 61.1265 82.3048 60.9025C82.3048 60.6925 82.2663 60.507 82.1893 60.346C82.1123 60.178 82.0038 60.0485 81.8638 59.9575C81.7238 59.8595 81.5558 59.8105 81.3598 59.8105C81.2618 59.8105 81.1568 59.828 81.0448 59.863C80.9398 59.898 80.8348 59.9505 80.7298 60.0205C80.6248 60.0835 80.5233 60.1605 80.4253 60.2515C80.3343 60.3425 80.2468 60.4475 80.1628 60.5665L79.9213 61.7005C79.9563 61.8895 80.0123 62.0575 80.0893 62.2045C80.1733 62.3515 80.2783 62.4705 80.4043 62.5615C80.5373 62.6455 80.6808 62.6875 80.8348 62.6875ZM87.168 64.105C86.664 64.105 86.2265 64 85.8555 63.79C85.4915 63.573 85.208 63.2755 85.005 62.8975C84.809 62.5195 84.711 62.0925 84.711 61.6165C84.704 61.1615 84.781 60.7415 84.942 60.3565C85.11 59.9645 85.3445 59.6215 85.6455 59.3275C85.9465 59.0335 86.3 58.8025 86.706 58.6345C87.119 58.4665 87.567 58.3825 88.05 58.3825C88.463 58.3825 88.827 58.4455 89.142 58.5715C89.457 58.6905 89.7055 58.869 89.8875 59.107C90.0695 59.338 90.171 59.6215 90.192 59.9575C90.22 60.5525 89.968 61.0075 89.436 61.3225C88.911 61.6375 88.106 61.795 87.021 61.795C86.79 61.795 86.5415 61.7915 86.2755 61.7845C86.0165 61.7705 85.7505 61.7495 85.4775 61.7215L85.656 60.682C85.866 60.703 86.076 60.7205 86.286 60.7345C86.503 60.7415 86.7235 60.745 86.9475 60.745C87.3535 60.745 87.672 60.724 87.903 60.682C88.141 60.633 88.3055 60.563 88.3965 60.472C88.4945 60.374 88.54 60.255 88.533 60.115C88.526 60.01 88.491 59.9225 88.428 59.8525C88.365 59.7755 88.281 59.716 88.176 59.674C88.071 59.632 87.952 59.611 87.819 59.611C87.623 59.611 87.441 59.6635 87.273 59.7685C87.112 59.8735 86.9685 60.0205 86.8425 60.2095C86.7165 60.3985 86.6185 60.619 86.5485 60.871C86.4785 61.123 86.4435 61.396 86.4435 61.69C86.4365 61.942 86.468 62.159 86.538 62.341C86.608 62.516 86.713 62.649 86.853 62.74C87 62.831 87.1855 62.8765 87.4095 62.8765C87.5635 62.8765 87.7 62.859 87.819 62.824C87.945 62.782 88.0535 62.7295 88.1445 62.6665C88.2425 62.5965 88.323 62.5265 88.386 62.4565C88.456 62.3865 88.5085 62.32 88.5435 62.257L89.9085 62.6875C89.8105 62.8485 89.681 63.013 89.52 63.181C89.359 63.342 89.163 63.4925 88.932 63.6325C88.708 63.7725 88.449 63.888 88.155 63.979C87.868 64.063 87.539 64.105 87.168 64.105ZM92.9216 64.105C92.4036 64.105 91.9731 64 91.6301 63.79C91.2871 63.573 91.0316 63.2895 90.8636 62.9395C90.6956 62.5895 90.6116 62.2045 90.6116 61.7845C90.6116 61.3505 90.6956 60.934 90.8636 60.535C91.0316 60.129 91.2696 59.765 91.5776 59.443C91.8856 59.121 92.2531 58.8655 92.6801 58.6765C93.1141 58.4805 93.5936 58.3825 94.1186 58.3825C94.7276 58.3825 95.2106 58.519 95.5676 58.792C95.9316 59.058 96.1731 59.408 96.2921 59.842L94.5596 60.3355C94.4966 60.1675 94.4021 60.038 94.2761 59.947C94.1501 59.856 93.9961 59.8105 93.8141 59.8105C93.6251 59.8105 93.4431 59.856 93.2681 59.947C93.0931 60.031 92.9356 60.1535 92.7956 60.3145C92.6626 60.4755 92.5541 60.6645 92.4701 60.8815C92.3931 61.0985 92.3546 61.3365 92.3546 61.5955C92.3546 61.8125 92.3896 62.005 92.4596 62.173C92.5296 62.334 92.6276 62.46 92.7536 62.551C92.8866 62.642 93.0336 62.6875 93.1946 62.6875C93.3206 62.6875 93.4431 62.6665 93.5621 62.6245C93.6881 62.5755 93.8036 62.509 93.9086 62.425C94.0136 62.341 94.1011 62.2465 94.1711 62.1415L95.7041 62.6455C95.5081 62.9255 95.2701 63.1775 94.9901 63.4015C94.7101 63.6185 94.3951 63.79 94.0451 63.916C93.6951 64.042 93.3206 64.105 92.9216 64.105ZM98.674 64.105C98.156 64.105 97.7255 64 97.3825 63.79C97.0395 63.573 96.784 63.2895 96.616 62.9395C96.448 62.5895 96.364 62.2045 96.364 61.7845C96.364 61.3505 96.448 60.934 96.616 60.535C96.784 60.129 97.022 59.765 97.33 59.443C97.638 59.121 98.0055 58.8655 98.4325 58.6765C98.8665 58.4805 99.346 58.3825 99.871 58.3825C100.48 58.3825 100.963 58.519 101.32 58.792C101.684 59.058 101.926 59.408 102.045 59.842L100.312 60.3355C100.249 60.1675 100.155 60.038 100.029 59.947C99.9025 59.856 99.7485 59.8105 99.5665 59.8105C99.3775 59.8105 99.1955 59.856 99.0205 59.947C98.8455 60.031 98.688 60.1535 98.548 60.3145C98.415 60.4755 98.3065 60.6645 98.2225 60.8815C98.1455 61.0985 98.107 61.3365 98.107 61.5955C98.107 61.8125 98.142 62.005 98.212 62.173C98.282 62.334 98.38 62.46 98.506 62.551C98.639 62.642 98.786 62.6875 98.947 62.6875C99.073 62.6875 99.1955 62.6665 99.3145 62.6245C99.4405 62.5755 99.556 62.509 99.661 62.425C99.766 62.341 99.8535 62.2465 99.9235 62.1415L101.457 62.6455C101.261 62.9255 101.023 63.1775 100.743 63.4015C100.463 63.6185 100.148 63.79 99.7975 63.916C99.4475 64.042 99.073 64.105 98.674 64.105ZM101.906 64L102.263 62.2885H103.639L103.271 64H101.906ZM106.513 65.428L107.133 62.488H107.626C107.864 62.474 108.078 62.3305 108.267 62.0575C108.463 61.7845 108.648 61.368 108.823 60.808C109.005 60.241 109.187 59.52 109.369 58.645L109.81 56.545H115.06L113.8 62.488H114.808L114.189 65.428H112.687L112.981 64H108.319L108.015 65.428H106.513ZM109.611 62.488H112.078L113.023 58.057H111.112L110.923 58.9705C110.797 59.6005 110.671 60.15 110.545 60.619C110.419 61.081 110.283 61.466 110.136 61.774C109.989 62.075 109.814 62.313 109.611 62.488ZM118.444 64.105C117.821 64.105 117.307 63.972 116.901 63.706C116.502 63.44 116.218 63.09 116.05 62.656C115.882 62.222 115.833 61.753 115.903 61.249C115.959 60.864 116.075 60.5 116.25 60.157C116.425 59.814 116.656 59.5095 116.943 59.2435C117.237 58.9775 117.576 58.7675 117.961 58.6135C118.353 58.4595 118.78 58.3825 119.242 58.3825C119.872 58.3825 120.387 58.5155 120.786 58.7815C121.192 59.0475 121.479 59.3975 121.647 59.8315C121.815 60.2655 121.864 60.738 121.794 61.249C121.745 61.627 121.629 61.9875 121.447 62.3305C121.272 62.6735 121.038 62.978 120.744 63.244C120.457 63.51 120.121 63.72 119.736 63.874C119.351 64.028 118.92 64.105 118.444 64.105ZM118.644 62.7715C118.812 62.7715 118.976 62.7365 119.137 62.6665C119.305 62.5895 119.456 62.4845 119.589 62.3515C119.722 62.2115 119.834 62.047 119.925 61.858C120.016 61.669 120.075 61.466 120.103 61.249C120.145 60.948 120.124 60.682 120.04 60.451C119.963 60.22 119.837 60.0415 119.662 59.9155C119.487 59.7895 119.284 59.7265 119.053 59.7265C118.878 59.7265 118.71 59.765 118.549 59.842C118.388 59.912 118.241 60.0135 118.108 60.1465C117.975 60.2795 117.863 60.4405 117.772 60.6295C117.681 60.8115 117.622 61.018 117.594 61.249C117.552 61.55 117.569 61.816 117.646 62.047C117.73 62.271 117.86 62.4495 118.035 62.5825C118.21 62.7085 118.413 62.7715 118.644 62.7715ZM124.555 64.105C124.037 64.105 123.606 64 123.263 63.79C122.92 63.573 122.665 63.2895 122.497 62.9395C122.329 62.5895 122.245 62.2045 122.245 61.7845C122.245 61.3505 122.329 60.934 122.497 60.535C122.665 60.129 122.903 59.765 123.211 59.443C123.519 59.121 123.886 58.8655 124.313 58.6765C124.747 58.4805 125.227 58.3825 125.752 58.3825C126.361 58.3825 126.844 58.519 127.201 58.792C127.565 59.058 127.806 59.408 127.925 59.842L126.193 60.3355C126.13 60.1675 126.035 60.038 125.909 59.947C125.783 59.856 125.629 59.8105 125.447 59.8105C125.258 59.8105 125.076 59.856 124.901 59.947C124.726 60.031 124.569 60.1535 124.429 60.3145C124.296 60.4755 124.187 60.6645 124.103 60.8815C124.026 61.0985 123.988 61.3365 123.988 61.5955C123.988 61.8125 124.023 62.005 124.093 62.173C124.163 62.334 124.261 62.46 124.387 62.551C124.52 62.642 124.667 62.6875 124.828 62.6875C124.954 62.6875 125.076 62.6665 125.195 62.6245C125.321 62.5755 125.437 62.509 125.542 62.425C125.647 62.341 125.734 62.2465 125.804 62.1415L127.337 62.6455C127.141 62.9255 126.903 63.1775 126.623 63.4015C126.343 63.6185 126.028 63.79 125.678 63.916C125.328 64.042 124.954 64.105 124.555 64.105ZM128.953 58.4875H130.465L130.265 59.4115C130.524 59.0825 130.839 58.8305 131.21 58.6555C131.588 58.4735 131.977 58.3825 132.376 58.3825C132.677 58.3825 132.915 58.4315 133.09 58.5295C133.272 58.6205 133.405 58.7465 133.489 58.9075C133.573 59.0685 133.618 59.2505 133.625 59.4535C133.814 59.2225 134.017 59.03 134.234 58.876C134.458 58.722 134.696 58.603 134.948 58.519C135.207 58.428 135.466 58.3825 135.725 58.3825C136.054 58.3825 136.306 58.442 136.481 58.561C136.663 58.673 136.789 58.8235 136.859 59.0125C136.929 59.2015 136.964 59.4115 136.964 59.6425C136.964 59.7265 136.957 59.8385 136.943 59.9785C136.929 60.1115 136.901 60.276 136.859 60.472L136.103 64H134.423L135.085 60.9025C135.12 60.7345 135.137 60.5875 135.137 60.4615C135.137 60.2585 135.092 60.108 135.001 60.01C134.917 59.912 134.808 59.863 134.675 59.863C134.542 59.863 134.399 59.905 134.245 59.989C134.091 60.073 133.944 60.192 133.804 60.346C133.671 60.493 133.552 60.6575 133.447 60.8395L132.785 64H131.105L131.767 60.9025C131.788 60.8185 131.802 60.7415 131.809 60.6715C131.816 60.5945 131.819 60.5245 131.819 60.4615C131.819 60.2585 131.777 60.108 131.693 60.01C131.609 59.912 131.494 59.863 131.347 59.863C131.151 59.863 130.934 59.9575 130.696 60.1465C130.465 60.3285 130.276 60.5595 130.129 60.8395L129.457 64H127.777L128.953 58.4875ZM139.374 64.105C138.968 64.105 138.618 64.0105 138.324 63.8215C138.037 63.6255 137.813 63.3595 137.652 63.0235C137.498 62.6805 137.421 62.2955 137.421 61.8685C137.421 61.3995 137.501 60.955 137.662 60.535C137.823 60.115 138.044 59.7475 138.324 59.4325C138.604 59.1105 138.922 58.855 139.279 58.666C139.643 58.477 140.025 58.3825 140.424 58.3825C140.781 58.3825 141.085 58.477 141.337 58.666C141.596 58.848 141.771 59.0895 141.862 59.3905L142.051 58.519H143.742L142.965 62.11C142.958 62.152 142.951 62.1905 142.944 62.2255C142.944 62.2605 142.944 62.2955 142.944 62.3305C142.944 62.4915 143.031 62.5755 143.206 62.5825L142.912 64C142.758 64.028 142.622 64.049 142.503 64.063C142.384 64.077 142.282 64.084 142.198 64.084C141.925 64.084 141.708 64.0315 141.547 63.9265C141.386 63.8145 141.306 63.6325 141.306 63.3805C141.306 63.3525 141.306 63.3245 141.306 63.2965C141.306 63.2685 141.309 63.237 141.316 63.202C141.323 63.167 141.33 63.1285 141.337 63.0865C141.078 63.4295 140.774 63.685 140.424 63.853C140.081 64.021 139.731 64.105 139.374 64.105ZM140.13 62.6875C140.235 62.6875 140.34 62.67 140.445 62.635C140.557 62.593 140.665 62.5405 140.77 62.4775C140.875 62.4145 140.977 62.334 141.075 62.236C141.173 62.138 141.26 62.033 141.337 61.921L141.579 60.766C141.558 60.577 141.502 60.4125 141.411 60.2725C141.327 60.1325 141.218 60.0205 141.085 59.9365C140.952 59.8525 140.812 59.8105 140.665 59.8105C140.469 59.8105 140.284 59.8595 140.109 59.9575C139.934 60.0555 139.776 60.1885 139.636 60.3565C139.503 60.5245 139.395 60.717 139.311 60.934C139.234 61.144 139.195 61.3645 139.195 61.5955C139.195 61.8055 139.23 61.9945 139.3 62.1625C139.377 62.3235 139.486 62.453 139.626 62.551C139.766 62.642 139.934 62.6875 140.13 62.6875ZM146.784 64.105C145.93 64.098 145.3 63.8915 144.894 63.4855C144.488 63.0725 144.299 62.4775 144.327 61.7005C144.355 60.9725 144.513 60.3635 144.8 59.8735C145.094 59.3835 145.493 59.0125 145.997 58.7605C146.508 58.5085 147.092 58.3825 147.75 58.3825C148.366 58.3825 148.839 58.512 149.168 58.771C149.497 59.023 149.661 59.3695 149.661 59.8105C149.661 60.1885 149.525 60.521 149.252 60.808C148.986 61.095 148.618 61.319 148.149 61.48C147.687 61.641 147.159 61.7215 146.564 61.7215C146.347 61.7215 146.119 61.7145 145.881 61.7005C145.65 61.6795 145.419 61.655 145.188 61.627L145.367 60.829C145.598 60.857 145.818 60.878 146.028 60.892C146.245 60.906 146.445 60.913 146.627 60.913C147.04 60.913 147.365 60.871 147.603 60.787C147.841 60.696 148.009 60.5805 148.107 60.4405C148.212 60.3005 148.265 60.1605 148.265 60.0205C148.265 59.8945 148.219 59.786 148.128 59.695C148.037 59.597 147.876 59.548 147.645 59.548C147.351 59.548 147.082 59.6355 146.837 59.8105C146.592 59.9785 146.389 60.2235 146.228 60.5455C146.074 60.8605 145.986 61.249 145.965 61.711C145.937 62.103 145.993 62.411 146.133 62.635C146.28 62.852 146.581 62.9605 147.036 62.9605C147.232 62.9605 147.407 62.9325 147.561 62.8765C147.722 62.8205 147.848 62.7365 147.939 62.6245C148.03 62.5055 148.076 62.362 148.076 62.194C148.076 62.005 148.023 61.858 147.918 61.753C147.813 61.648 147.694 61.5745 147.561 61.5325C147.435 61.4905 147.337 61.4695 147.267 61.4695L147.761 60.9025C147.817 60.9025 147.915 60.9165 148.055 60.9445C148.202 60.9655 148.363 61.0075 148.538 61.0705C148.713 61.1265 148.884 61.207 149.052 61.312C149.22 61.417 149.357 61.55 149.462 61.711C149.574 61.872 149.63 62.068 149.63 62.299C149.63 62.677 149.504 63.0025 149.252 63.2755C149 63.5415 148.66 63.748 148.233 63.895C147.806 64.035 147.323 64.105 146.784 64.105ZM151.582 64.105C150.721 64.105 150.291 63.664 150.291 62.782C150.291 62.663 150.298 62.544 150.312 62.425C150.333 62.299 150.357 62.1625 150.385 62.0155L151.141 58.4875H152.811L152.139 61.648C152.104 61.802 152.086 61.9385 152.086 62.0575C152.086 62.4775 152.261 62.6875 152.611 62.6875C152.744 62.6875 152.877 62.663 153.01 62.614C153.143 62.558 153.283 62.4705 153.43 62.3515C153.577 62.2325 153.721 62.0785 153.861 61.8895L154.585 58.4875H156.265L155.499 62.11C155.492 62.152 155.485 62.1905 155.478 62.2255C155.471 62.2605 155.467 62.2955 155.467 62.3305C155.467 62.4915 155.558 62.5755 155.74 62.5825L155.436 64C155.282 64.028 155.145 64.049 155.026 64.063C154.907 64.077 154.806 64.084 154.722 64.084C154.449 64.084 154.228 64.0315 154.06 63.9265C153.899 63.8215 153.819 63.65 153.819 63.412C153.819 63.384 153.822 63.356 153.829 63.328C153.836 63.293 153.843 63.251 153.85 63.202C153.857 63.153 153.864 63.1005 153.871 63.0445C153.556 63.4085 153.203 63.678 152.811 63.853C152.426 64.021 152.016 64.105 151.582 64.105ZM156.49 64L157.656 58.4875H159.399L160.281 61.396L162.412 58.4875H164.239L163.063 64H161.467L162.16 60.7555L160.512 63.034H159.462L158.769 60.7555L158.076 64H156.49ZM169.476 64.105C168.622 64.098 167.992 63.8915 167.586 63.4855C167.18 63.0725 166.991 62.4775 167.019 61.7005C167.047 60.9725 167.205 60.3635 167.492 59.8735C167.786 59.3835 168.185 59.0125 168.689 58.7605C169.2 58.5085 169.784 58.3825 170.442 58.3825C171.058 58.3825 171.531 58.512 171.86 58.771C172.189 59.023 172.353 59.3695 172.353 59.8105C172.353 60.1885 172.217 60.521 171.944 60.808C171.678 61.095 171.31 61.319 170.841 61.48C170.379 61.641 169.851 61.7215 169.256 61.7215C169.039 61.7215 168.811 61.7145 168.573 61.7005C168.342 61.6795 168.111 61.655 167.88 61.627L168.059 60.829C168.29 60.857 168.51 60.878 168.72 60.892C168.937 60.906 169.137 60.913 169.319 60.913C169.732 60.913 170.057 60.871 170.295 60.787C170.533 60.696 170.701 60.5805 170.799 60.4405C170.904 60.3005 170.957 60.1605 170.957 60.0205C170.957 59.8945 170.911 59.786 170.82 59.695C170.729 59.597 170.568 59.548 170.337 59.548C170.043 59.548 169.774 59.6355 169.529 59.8105C169.284 59.9785 169.081 60.2235 168.92 60.5455C168.766 60.8605 168.678 61.249 168.657 61.711C168.629 62.103 168.685 62.411 168.825 62.635C168.972 62.852 169.273 62.9605 169.728 62.9605C169.924 62.9605 170.099 62.9325 170.253 62.8765C170.414 62.8205 170.54 62.7365 170.631 62.6245C170.722 62.5055 170.768 62.362 170.768 62.194C170.768 62.005 170.715 61.858 170.61 61.753C170.505 61.648 170.386 61.5745 170.253 61.5325C170.127 61.4905 170.029 61.4695 169.959 61.4695L170.453 60.9025C170.509 60.9025 170.607 60.9165 170.747 60.9445C170.894 60.9655 171.055 61.0075 171.23 61.0705C171.405 61.1265 171.576 61.207 171.744 61.312C171.912 61.417 172.049 61.55 172.154 61.711C172.266 61.872 172.322 62.068 172.322 62.299C172.322 62.677 172.196 63.0025 171.944 63.2755C171.692 63.5415 171.352 63.748 170.925 63.895C170.498 64.035 170.015 64.105 169.476 64.105ZM175.24 64.105C174.722 64.105 174.291 64 173.948 63.79C173.605 63.573 173.35 63.2895 173.182 62.9395C173.014 62.5895 172.93 62.2045 172.93 61.7845C172.93 61.3505 173.014 60.934 173.182 60.535C173.35 60.129 173.588 59.765 173.896 59.443C174.204 59.121 174.571 58.8655 174.998 58.6765C175.432 58.4805 175.912 58.3825 176.437 58.3825C177.046 58.3825 177.529 58.519 177.886 58.792C178.25 59.058 178.491 59.408 178.61 59.842L176.878 60.3355C176.815 60.1675 176.72 60.038 176.594 59.947C176.468 59.856 176.314 59.8105 176.132 59.8105C175.943 59.8105 175.761 59.856 175.586 59.947C175.411 60.031 175.254 60.1535 175.114 60.3145C174.981 60.4755 174.872 60.6645 174.788 60.8815C174.711 61.0985 174.673 61.3365 174.673 61.5955C174.673 61.8125 174.708 62.005 174.778 62.173C174.848 62.334 174.946 62.46 175.072 62.551C175.205 62.642 175.352 62.6875 175.513 62.6875C175.639 62.6875 175.761 62.6665 175.88 62.6245C176.006 62.5755 176.122 62.509 176.227 62.425C176.332 62.341 176.419 62.2465 176.489 62.1415L178.022 62.6455C177.826 62.9255 177.588 63.1775 177.308 63.4015C177.028 63.6185 176.713 63.79 176.363 63.916C176.013 64.042 175.639 64.105 175.24 64.105ZM181.381 64.105C180.877 64.105 180.439 64 180.068 63.79C179.704 63.573 179.421 63.2755 179.218 62.8975C179.022 62.5195 178.924 62.0925 178.924 61.6165C178.917 61.1615 178.994 60.7415 179.155 60.3565C179.323 59.9645 179.557 59.6215 179.858 59.3275C180.159 59.0335 180.513 58.8025 180.919 58.6345C181.332 58.4665 181.78 58.3825 182.263 58.3825C182.676 58.3825 183.04 58.4455 183.355 58.5715C183.67 58.6905 183.918 58.869 184.1 59.107C184.282 59.338 184.384 59.6215 184.405 59.9575C184.433 60.5525 184.181 61.0075 183.649 61.3225C183.124 61.6375 182.319 61.795 181.234 61.795C181.003 61.795 180.754 61.7915 180.488 61.7845C180.229 61.7705 179.963 61.7495 179.69 61.7215L179.869 60.682C180.079 60.703 180.289 60.7205 180.499 60.7345C180.716 60.7415 180.936 60.745 181.16 60.745C181.566 60.745 181.885 60.724 182.116 60.682C182.354 60.633 182.518 60.563 182.609 60.472C182.707 60.374 182.753 60.255 182.746 60.115C182.739 60.01 182.704 59.9225 182.641 59.8525C182.578 59.7755 182.494 59.716 182.389 59.674C182.284 59.632 182.165 59.611 182.032 59.611C181.836 59.611 181.654 59.6635 181.486 59.7685C181.325 59.8735 181.181 60.0205 181.055 60.2095C180.929 60.3985 180.831 60.619 180.761 60.871C180.691 61.123 180.656 61.396 180.656 61.69C180.649 61.942 180.681 62.159 180.751 62.341C180.821 62.516 180.926 62.649 181.066 62.74C181.213 62.831 181.398 62.8765 181.622 62.8765C181.776 62.8765 181.913 62.859 182.032 62.824C182.158 62.782 182.266 62.7295 182.357 62.6665C182.455 62.5965 182.536 62.5265 182.599 62.4565C182.669 62.3865 182.721 62.32 182.756 62.257L184.121 62.6875C184.023 62.8485 183.894 63.013 183.733 63.181C183.572 63.342 183.376 63.4925 183.145 63.6325C182.921 63.7725 182.662 63.888 182.368 63.979C182.081 64.063 181.752 64.105 181.381 64.105ZM180.719 57.7735L181.013 56.419H182.389L182.105 57.7735H180.719ZM182.872 57.7735L183.166 56.419H184.531L184.258 57.7735H182.872ZM184.614 64L184.971 62.2885H186.347L185.979 64H184.614Z" fill="black"/>
<defs>
<clipPath id="clip0_974_1586">
<rect width="50.0435" height="47" fill="white" transform="translate(1)"/>
</clipPath>
</defs>
</svg>
