<?xml version="1.0" encoding="utf-8"?>
<!-- Generator: Adobe Illustrator 27.0.1, SVG Export Plug-In . SVG Version: 6.00 Build 0)  -->
<svg version="1.1" id="Layer_1" xmlns="http://www.w3.org/2000/svg" xmlns:xlink="http://www.w3.org/1999/xlink" x="0px" y="0px"
	 viewBox="0 0 251 70" style="enable-background:new 0 0 251 70;" xml:space="preserve">
<style type="text/css">
	.st0{fill:#E60029;}
	.st1{fill:#3622F5;}
</style>
<polygon class="st0" points="52,18.2 52,29.9 64.3,29.9 64.3,40.9 52,40.9 52,52.8 64.3,52.8 64.3,63.8 48.7,63.8 48.7,63.8 
	30.9,63.8 30.9,7.2 64.3,7.3 64.3,18.2 "/>
<path class="st1" d="M42,7.2v56.5H8.2V52.5h22.6V7.2H42z"/>
<path class="st1" d="M101.3,63.5h-4.7l-5.2-11.8l-5.2,11.8h-4.7l9.9-22.1L101.3,63.5z"/>
<path class="st1" d="M109.5,50.1c0.4-2.1,1.4-4,3-5.6c2.2-2.2,4.8-3.3,7.9-3.3s5.7,1.1,7.9,3.3c2.2,2.2,3.3,4.9,3.3,8
	c0,3.1-1.1,5.8-3.3,7.9c-2.2,2.2-4.8,3.3-7.9,3.3c-3.1,0-5.7-1.1-7.9-3.3c-1.6-1.6-2.6-3.5-3-5.6h-2.3v8.7h-4.4V41.4h4.4v8.7H109.5z
	 M115.7,47.7c-1.3,1.3-2,2.9-2,4.8c0,1.8,0.7,3.5,2,4.8c1.3,1.3,2.9,2,4.7,2c1.9,0,3.4-0.7,4.7-2c1.3-1.3,2-2.9,2-4.8
	c0-1.9-0.7-3.4-2-4.8c-1.3-1.3-2.9-2-4.7-2C118.6,45.7,117,46.4,115.7,47.7z"/>
<path class="st1" d="M138,48.1h3.3c2.1,0,3.9,0.8,5.5,2.3c1.5,1.5,2.3,3.3,2.3,5.5c0,2.2-0.8,4-2.3,5.5c-1.5,1.5-3.3,2.3-5.5,2.3
	h-7.7V41.4h13.3v4.4H138V48.1z M138,59.2h3.3c0.9,0,1.7-0.3,2.3-1c0.7-0.7,1-1.4,1-2.4s-0.3-1.7-1-2.4c-0.7-0.7-1.4-1-2.3-1l-3.3,0
	V59.2z"/>
<path class="st1" d="M170.1,63.5h-4.7l-5.2-11.8l-5.2,11.8h-4.7l9.9-22.1L170.1,63.5z"/>
<path class="st1" d="M189.7,40.9v22.7h-4.4V51.3L172,64V41.3h4.4v12.3L189.7,40.9L189.7,40.9z"/>
<path class="st1" d="M196.9,41.4v8.9h7.4v-8.9h4.4v22.2h-4.4v-8.9h-7.4v8.9h-4.4V41.4H196.9z"/>
<path class="st1" d="M229.6,44.5c2.2,2.2,3.3,4.9,3.3,8c0,3.1-1.1,5.8-3.3,7.9c-2.2,2.2-4.8,3.3-7.9,3.3c-3.1,0-5.7-1.1-7.9-3.3
	c-2.2-2.2-3.3-4.8-3.3-7.9c0-3.1,1.1-5.7,3.3-8c2.2-2.2,4.8-3.3,7.9-3.3S227.5,42.3,229.6,44.5z M217,47.7c-1.3,1.3-2,2.9-2,4.8
	c0,1.8,0.7,3.5,2,4.8c1.3,1.3,2.9,2,4.7,2c1.9,0,3.4-0.7,4.7-2c1.3-1.3,2-2.9,2-4.8c0-1.9-0.7-3.4-2-4.8c-1.3-1.3-2.9-2-4.7-2
	C219.9,45.7,218.3,46.4,217,47.7z"/>
<path class="st0" d="M180,28c-0.1-0.4-0.3-0.7-0.6-1c-0.5-0.5-1.1-0.8-1.9-0.8c-0.7,0-1.3,0.3-1.9,0.8l-1.2-1.2
	c0.9-0.9,1.9-1.3,3.1-1.3v0c1.2,0,2.2,0.4,3.1,1.3c0.9,0.9,1.3,1.9,1.3,3.1c0,1.2-0.4,2.3-1.3,3.1c-0.9,0.9-1.9,1.3-3.1,1.3
	c-1.2,0-2.3-0.4-3.1-1.3l1.2-1.2c0.5,0.5,1.1,0.8,1.9,0.8c0.7,0,1.3-0.3,1.9-0.8c0.3-0.3,0.5-0.6,0.6-1h-2.4V28L180,28L180,28z"/>
<path class="st0" d="M184.4,24.5v3.8l2.2-3.8h2l-2.6,4.4l3,4.3h-2.1l-2.5-3.6v3.6h-1.7v-8.7H184.4L184.4,24.5z"/>
<path class="st0" d="M193.9,33.3c-1.2,0-2.2-0.4-3.1-1.3c-0.9-0.9-1.3-1.9-1.3-3.1s0.4-2.3,1.3-3.1c0.9-0.9,1.9-1.3,3.1-1.3v0
	c1.2,0,2.2,0.4,3.1,1.3l-1.2,1.2c-0.5-0.5-1.1-0.8-1.9-0.8c-0.7,0-1.4,0.3-1.9,0.8c-0.5,0.5-0.8,1.1-0.8,1.9c0,0.7,0.3,1.4,0.8,1.9
	c0.5,0.5,1.1,0.8,1.9,0.8c0.7,0,1.4-0.3,1.9-0.8L197,32C196.1,32.8,195.1,33.3,193.9,33.3L193.9,33.3z"/>
<path class="st0" d="M199.5,26.2v7h-1.7v-8.7h6.3v8.7h-1.7v-7H199.5z"/>
<path class="st0" d="M205.1,24.5h3c0.8,0,1.6,0.3,2.1,0.9c0.6,0.6,0.9,1.3,0.9,2.2s-0.3,1.6-0.9,2.1c-0.6,0.6-1.3,0.9-2.1,0.9h-1.3
	v2.6h-1.7L205.1,24.5L205.1,24.5z M209,26.6c-0.3-0.3-0.6-0.4-0.9-0.4h-1.3v2.6h1.3c0.4,0,0.7-0.1,0.9-0.4s0.4-0.6,0.4-0.9
	C209.4,27.2,209.3,26.9,209,26.6L209,26.6z"/>
<path class="st0" d="M217.1,24.5v1.7h-3.5V28h2.6v1.7h-2.6v1.8h3.5v1.7h-5.2v-8.7L217.1,24.5L217.1,24.5z"/>
<path class="st0" d="M221.9,33.3c-1.2,0-2.2-0.4-3.1-1.3c-0.9-0.9-1.3-1.9-1.3-3.1s0.4-2.3,1.3-3.1c0.9-0.9,1.9-1.3,3.1-1.3v0
	c1.2,0,2.2,0.4,3.1,1.3l-1.2,1.2c-0.5-0.5-1.1-0.8-1.9-0.8c-0.7,0-1.4,0.3-1.9,0.8c-0.5,0.5-0.8,1.1-0.8,1.9c0,0.7,0.3,1.4,0.8,1.9
	c0.5,0.5,1.1,0.8,1.9,0.8c0.7,0,1.4-0.3,1.9-0.8L225,32C224.2,32.8,223.1,33.3,221.9,33.3L221.9,33.3z"/>
<path class="st0" d="M229.8,33.3c-1.2,0-2.2-0.4-3.1-1.3c-0.9-0.9-1.3-1.9-1.3-3.1s0.4-2.3,1.3-3.1c0.9-0.9,1.9-1.3,3.1-1.3v0
	c1.2,0,2.2,0.4,3.1,1.3l-1.2,1.2c-0.5-0.5-1.1-0.8-1.9-0.8s-1.3,0.3-1.9,0.8c-0.5,0.5-0.8,1.1-0.8,1.9c0,0.7,0.3,1.4,0.8,1.9
	c0.5,0.5,1.1,0.8,1.9,0.8s1.4-0.3,1.9-0.8l1.2,1.2C232.1,32.8,231,33.3,229.8,33.3L229.8,33.3z"/>
</svg>
