<svg width="16" height="22" viewBox="0 0 16 22" fill="none" xmlns="http://www.w3.org/2000/svg">
<path fill-rule="evenodd" clip-rule="evenodd" d="M7.99997 0.833374C5.12809 0.833374 2.79997 3.16149 2.79997 6.03337C2.79997 8.90526 5.12809 11.2334 7.99997 11.2334C10.8719 11.2334 13.2 8.90526 13.2 6.03337C13.2 3.16149 10.8719 0.833374 7.99997 0.833374ZM4.79997 6.03337C4.79997 4.26606 6.23266 2.83337 7.99997 2.83337C9.76728 2.83337 11.2 4.26606 11.2 6.03337C11.2 7.80069 9.76728 9.23337 7.99997 9.23337C6.23266 9.23337 4.79997 7.80069 4.79997 6.03337ZM2.3335 20.1666C2.3335 17.935 2.92018 16.4978 3.81871 15.6123C4.7202 14.7238 6.09505 14.2334 8.00007 14.2334C9.90509 14.2334 11.28 14.7238 12.1815 15.6123C13.0801 16.4978 13.6668 17.935 13.6667 20.1666C13.6667 20.7189 14.1144 21.1666 14.6667 21.1666C15.219 21.1666 15.6667 20.7189 15.6667 20.1667C15.6668 17.5983 14.9868 15.5689 13.5854 14.1878C12.1869 12.8096 10.2284 12.2334 8.00007 12.2334C5.77175 12.2334 3.81331 12.8096 2.41485 14.1878C1.01344 15.5689 0.333496 17.5983 0.333496 20.1666C0.333496 20.7189 0.781211 21.1666 1.3335 21.1666C1.88578 21.1666 2.3335 20.7189 2.3335 20.1666Z" fill="#3622F5"/>
</svg>
