<svg width="14" height="18" viewBox="0 0 14 18" fill="none" xmlns="http://www.w3.org/2000/svg">
<path fill-rule="evenodd" clip-rule="evenodd" d="M8.43604 0.048242C8.69035 0.157063 8.83731 0.425647 8.79183 0.698502L7.70827 7.19986H13C13.2273 7.19986 13.435 7.32826 13.5367 7.53153C13.6383 7.73481 13.6164 7.97805 13.48 8.15986L6.28 17.7599C6.11403 17.9812 5.81827 18.0603 5.56396 17.9515C5.30964 17.8427 5.16268 17.5741 5.20816 17.3012L6.29172 10.7999H0.999997C0.772734 10.7999 0.564976 10.6715 0.463341 10.4682C0.361706 10.2649 0.383639 10.0217 0.519997 9.83986L7.72 0.239863C7.88597 0.0185675 8.18172 -0.0605795 8.43604 0.048242ZM2.2 9.59986H7C7.17637 9.59986 7.34381 9.67746 7.45781 9.81204C7.57181 9.94661 7.62083 10.1245 7.59183 10.2985L6.79635 15.0714L11.8 8.39986H7C6.82363 8.39986 6.65619 8.32226 6.54219 8.18769C6.42818 8.05311 6.37917 7.8752 6.40816 7.70122L7.20364 2.92834L2.2 9.59986Z" fill="#A7A7A7"/>
</svg>
