<svg width="40" height="41" viewBox="0 0 40 41" fill="none" xmlns="http://www.w3.org/2000/svg">
<rect y="0.5" width="40" height="40" rx="20" fill="#2197D3"/>
<path d="M8.06818 19.9923L22.3642 14.2044C23.7754 13.6015 28.5611 11.6722 28.5611 11.6722C28.5611 11.6722 30.77 10.8281 30.5859 12.878C30.5245 13.7221 30.0337 16.6763 29.5428 19.8718L28.0089 29.3374C28.0089 29.3374 27.8862 30.7241 26.8432 30.9653C25.8001 31.2065 24.0821 30.1212 23.7754 29.8801C23.5299 29.6992 19.1736 26.9861 17.5784 25.6597C17.1489 25.298 16.658 24.5745 17.6397 23.7304C19.8486 21.7408 22.4869 19.2689 24.0821 17.7013C24.8184 16.9778 25.5547 15.2897 22.4869 17.3395L13.8357 23.0672C13.8357 23.0672 12.854 23.6701 11.0133 23.1275C9.17259 22.5849 7.02513 21.8614 7.02513 21.8614C7.02513 21.8614 5.55258 20.957 8.06818 19.9923Z" fill="white"/>
</svg>
