<svg width="40" height="41" viewBox="0 0 40 41" fill="none" xmlns="http://www.w3.org/2000/svg">
<rect y="0.5" width="40" height="40" rx="20" fill="#54CC61"/>
<path d="M14.6287 28.7835L14.9915 28.9985C16.5162 29.9033 18.2641 30.3818 20.0467 30.3828H20.0505C25.5248 30.3828 29.9803 25.9284 29.9823 20.4538C29.9832 17.8005 28.9512 15.306 27.076 13.4291C25.2007 11.5526 22.7074 10.5184 20.0541 10.5173C14.5756 10.5173 10.1202 14.971 10.1181 20.4456C10.1174 22.3217 10.6422 24.1488 11.6366 25.7295L11.8729 26.1052L10.8693 29.7691L14.6287 28.7835ZM8.00049 32.6072L9.69572 26.4171C8.65008 24.6055 8.1 22.5503 8.10086 20.4451C8.10341 13.8586 13.4636 8.49998 20.0508 8.49998C23.2472 8.50136 26.2474 9.74537 28.5035 12.0034C30.7594 14.2613 32.0014 17.2627 32.0004 20.4547C31.9976 27.0409 26.6363 32.4005 20.0508 32.4005C20.0503 32.4005 20.051 32.4005 20.0508 32.4005H20.0457C18.0458 32.3998 16.0807 31.8982 14.3354 30.9463L8.00049 32.6072Z" fill="white"/>
<path d="M8.10037 20.4478C8.09965 22.553 8.64973 24.6084 9.69537 26.4198L8 32.6095L14.3347 30.9486C16.0802 31.9004 18.0451 32.402 20.045 32.4028H20.0501C26.6356 32.4028 31.9969 27.0432 31.9997 20.457C32.0008 17.2649 30.7588 14.2635 28.5028 12.0057C26.2466 9.74783 23.2466 8.50368 20.0501 8.5023C13.4632 8.5023 8.10293 13.8609 8.10017 20.4474M11.8726 26.1077L11.6361 25.7321C10.6417 24.1512 10.1169 22.3242 10.1177 20.4483C10.1198 14.974 14.5752 10.5199 20.0536 10.5199C22.7066 10.521 25.2 11.5552 27.0755 13.4318C28.9508 15.3084 29.9827 17.8031 29.982 20.4561C29.9796 25.9307 25.5242 30.3851 20.0499 30.3851H20.046C18.2635 30.3841 16.5154 29.9056 14.9908 29.001L14.628 28.7859L10.8687 29.7715L11.8726 26.1077ZM20.0501 32.4028C20.0499 32.4028 20.05 32.4028 20.0501 32.4028V32.4028Z" fill="white"/>
<path fill-rule="evenodd" clip-rule="evenodd" d="M17.0635 15.4534C16.8398 14.9561 16.6044 14.9462 16.3916 14.9374C16.2175 14.93 16.0183 14.9305 15.8194 14.9305C15.6203 14.9305 15.2968 15.0052 15.0233 15.304C14.7495 15.6028 13.9781 16.3251 13.9781 17.794C13.9781 19.2632 15.0482 20.6827 15.1973 20.8821C15.3466 21.0811 17.2629 24.1921 20.2975 25.3888C22.8198 26.3834 23.333 26.1856 23.8805 26.1357C24.4279 26.086 25.647 25.4137 25.8958 24.7165C26.1446 24.0194 26.1446 23.4218 26.07 23.297C25.9954 23.1725 25.7962 23.0978 25.4977 22.9486C25.199 22.7993 23.7311 22.0769 23.4575 21.9772C23.1837 21.8777 22.9847 21.828 22.7855 22.1269C22.5865 22.4255 22.0146 23.0978 21.8404 23.297C21.6662 23.4965 21.492 23.5214 21.1934 23.3721C20.8947 23.2223 19.9331 22.9073 18.7923 21.8902C17.9047 21.0988 17.3055 20.1215 17.1312 19.8225C16.9571 19.524 17.1126 19.3623 17.2623 19.2134C17.3965 19.0796 17.561 18.8648 17.7104 18.6905C17.8593 18.5161 17.909 18.3917 18.0085 18.1926C18.1082 17.9933 18.0584 17.8189 17.9838 17.6695C17.909 17.5202 17.329 16.0438 17.0635 15.4534Z" fill="white"/>
</svg>
