<svg width="16" height="16" viewBox="0 0 16 16" fill="none" xmlns="http://www.w3.org/2000/svg">
<path d="M5.96166 8.2604C5.61452 7.91327 5.05171 7.91327 4.70458 8.2604C4.35744 8.60754 4.35744 9.17035 4.70458 9.51748L7.37124 12.1841C7.71838 12.5313 8.28119 12.5313 8.62832 12.1841L11.295 9.51748C11.6421 9.17035 11.6421 8.60754 11.295 8.2604C10.9479 7.91327 10.385 7.91327 10.0379 8.2604L8.88867 9.40964L8.88867 4.4445H13.3331C14.315 4.4445 15.1109 5.24044 15.1109 6.22228V12.4445C15.1109 13.4263 14.315 14.2223 13.3331 14.2223H2.66645C1.68461 14.2223 0.888672 13.4263 0.888672 12.4445V6.22228C0.888672 5.24044 1.68461 4.4445 2.66645 4.4445H7.11089L7.11089 9.40964L5.96166 8.2604Z" fill="white"/>
<path d="M7.11089 2.66672C7.11089 2.1758 7.50886 1.77783 7.99978 1.77783C8.4907 1.77783 8.88867 2.1758 8.88867 2.66672L8.88867 4.4445H7.11089L7.11089 2.66672Z" fill="white"/>
</svg>
